<svg width="24" height="24" viewBox="0 0 24 24" fill="none" xmlns="http://www.w3.org/2000/svg">
<g clip-path="url(#clip0)">
<path d="M19.9553 19.0982V10.4197H18.1473C18.3258 10.9822 18.4151 11.567 18.4151 12.1741C18.4151 13.2991 18.1294 14.3371 17.558 15.288C16.9866 16.2388 16.2098 16.9911 15.2276 17.5447C14.2455 18.0982 13.1741 18.375 12.0133 18.375C10.2544 18.375 8.74995 17.7701 7.49995 16.5603C6.24995 15.3505 5.62495 13.8884 5.62495 12.1741C5.62495 11.567 5.71423 10.9822 5.89281 10.4197H4.00441V19.0982C4.00441 19.3304 4.08254 19.5246 4.23879 19.6808C4.39504 19.8371 4.58923 19.9152 4.82138 19.9152H19.1383C19.3616 19.9152 19.5535 19.8371 19.7142 19.6808C19.8749 19.5246 19.9553 19.3304 19.9553 19.0982ZM16.1517 11.9598C16.1517 10.8527 15.7477 9.90849 14.9397 9.12724C14.1316 8.34599 13.1562 7.95537 12.0133 7.95537C10.8794 7.95537 9.90843 8.34599 9.10039 9.12724C8.29236 9.90849 7.88834 10.8527 7.88834 11.9598C7.88834 13.067 8.29236 14.0112 9.10039 14.7924C9.90843 15.5737 10.8794 15.9643 12.0133 15.9643C13.1562 15.9643 14.1316 15.5737 14.9397 14.7924C15.7477 14.0112 16.1517 13.067 16.1517 11.9598ZM19.9553 7.1384V4.92858C19.9553 4.67858 19.866 4.46206 19.6874 4.27903C19.5089 4.09599 19.2901 4.00447 19.0312 4.00447H16.7008C16.4419 4.00447 16.2232 4.09599 16.0446 4.27903C15.866 4.46206 15.7767 4.67858 15.7767 4.92858V7.1384C15.7767 7.39733 15.866 7.61608 16.0446 7.79465C16.2232 7.97322 16.4419 8.06251 16.7008 8.06251H19.0312C19.2901 8.06251 19.5089 7.97322 19.6874 7.79465C19.866 7.61608 19.9553 7.39733 19.9553 7.1384ZM22.2857 4.35269V19.6473C22.2857 20.3705 22.0267 20.9911 21.5089 21.5089C20.991 22.0268 20.3705 22.2857 19.6473 22.2857H4.35263C3.62941 22.2857 3.00888 22.0268 2.49102 21.5089C1.97316 20.9911 1.71423 20.3705 1.71423 19.6473V4.35269C1.71423 3.62947 1.97316 3.00894 2.49102 2.49108C3.00888 1.97322 3.62941 1.71429 4.35263 1.71429H19.6473C20.3705 1.71429 20.991 1.97322 21.5089 2.49108C22.0267 3.00894 22.2857 3.62947 22.2857 4.35269Z" fill="white"/>
</g>
<defs>
<clipPath id="clip0">
<rect width="24" height="24" fill="white"/>
</clipPath>
</defs>
</svg>
