<svg width="30" height="30" viewBox="0 0 30 30" fill="none" xmlns="http://www.w3.org/2000/svg">
<path d="M29.4185 6.02908C29.4165 6.02908 29.4146 6.02908 29.4127 6.02908H27.4414V5.35453C27.452 5.08754 27.2793 4.8476 27.0227 4.77302C25.6541 4.41438 24.2448 4.23454 22.83 4.23803C20.504 4.23803 17.3348 4.76139 14.9913 7.14557C12.6652 4.73813 9.47277 4.23803 7.15255 4.23803C5.73774 4.23454 4.32845 4.41438 2.95988 4.77302C2.70329 4.8476 2.53058 5.08754 2.54119 5.35453V6.02326H0.581508C0.26037 6.02326 0 6.28363 0 6.60477V25.1781C0 25.4993 0.26037 25.7596 0.581508 25.7596C0.681382 25.7594 0.779512 25.7333 0.866447 25.684C0.924598 25.655 6.73968 22.4741 14.8575 24.521H14.9448H14.9971C15.0435 24.5266 15.0903 24.5266 15.1367 24.521C23.2778 22.4567 29.0928 25.6317 29.1277 25.684C29.3076 25.7879 29.5293 25.7879 29.7092 25.684C29.8881 25.5808 29.9988 25.3905 30 25.184V6.61059C30 6.28945 29.7397 6.02908 29.4185 6.02908ZM1.16302 24.2535V7.19209H2.55282V21.7763C2.54919 22.0975 2.80658 22.3607 3.12771 22.3644C3.15912 22.3647 3.19052 22.3625 3.22155 22.3578C4.42455 22.1741 5.6391 22.077 6.85598 22.0671C8.54163 22.0378 10.2202 22.2914 11.8221 22.8172C8.20471 22.3798 4.53554 22.8742 1.16302 24.2535ZM6.85598 20.9099C5.79829 20.9123 4.74183 20.9802 3.69258 21.1134V5.81392C4.82477 5.56169 5.98096 5.43296 7.14092 5.43012C9.31576 5.43012 12.3163 5.93022 14.3981 8.27951L14.4156 22.7649C13.206 21.974 10.8451 20.9099 6.85598 20.9099ZM15.5786 8.27951C17.6604 5.95348 20.661 5.43012 22.8358 5.43012C23.9957 5.43354 25.1519 5.5622 26.2842 5.81392V21.1134C25.2408 20.979 24.1902 20.9091 23.1382 20.9041C19.1723 20.9041 16.8056 21.9682 15.5786 22.7591V8.27951ZM28.8312 24.2535C25.4514 22.8704 21.7738 22.3759 18.1489 22.8172C19.7583 22.2895 21.4449 22.0359 23.1382 22.0671C24.3627 22.0739 25.5851 22.1691 26.7959 22.352C27.1134 22.4002 27.4099 22.1818 27.4581 21.8643C27.4628 21.8333 27.465 21.8019 27.4646 21.7705V7.19209H28.8544L28.8312 24.2535Z" fill="#8D8D8D"/>
</svg>
