<svg width="15" height="15" viewBox="0 0 15 15" fill="none" xmlns="http://www.w3.org/2000/svg">
<g clip-path="url(#clip0)">
<path d="M12.4721 11.9362V6.51214H11.3421C11.4537 6.8637 11.5095 7.22921 11.5095 7.60868C11.5095 8.3118 11.3309 8.96052 10.9738 9.55483C10.6166 10.1491 10.1311 10.6193 9.5173 10.9653C8.90346 11.3112 8.23382 11.4842 7.50837 11.4842C6.40904 11.4842 5.46875 11.1062 4.6875 10.35C3.90625 9.59389 3.51562 8.68011 3.51562 7.60868C3.51562 7.22921 3.57143 6.8637 3.68303 6.51214H2.50279V11.9362C2.50279 12.0813 2.55162 12.2027 2.64927 12.3004C2.74693 12.398 2.8683 12.4468 3.01339 12.4468H11.9615C12.101 12.4468 12.221 12.398 12.3214 12.3004C12.4219 12.2027 12.4721 12.0813 12.4721 11.9362ZM10.0949 7.47475C10.0949 6.78278 9.84235 6.19266 9.33733 5.70438C8.83231 5.2161 8.22265 4.97196 7.50837 4.97196C6.79966 4.97196 6.1928 5.2161 5.68778 5.70438C5.18275 6.19266 4.93024 6.78278 4.93024 7.47475C4.93024 8.16671 5.18275 8.75684 5.68778 9.24512C6.1928 9.7334 6.79966 9.97754 7.50837 9.97754C8.22265 9.97754 8.83231 9.7334 9.33733 9.24512C9.84235 8.75684 10.0949 8.16671 10.0949 7.47475ZM12.4721 4.46136V3.08022C12.4721 2.92397 12.4163 2.78864 12.3047 2.67425C12.1931 2.55985 12.0564 2.50265 11.8945 2.50265H10.4381C10.2762 2.50265 10.1395 2.55985 10.0279 2.67425C9.91629 2.78864 9.86049 2.92397 9.86049 3.08022V4.46136C9.86049 4.62319 9.91629 4.75991 10.0279 4.87151C10.1395 4.98312 10.2762 5.03892 10.4381 5.03892H11.8945C12.0564 5.03892 12.1931 4.98312 12.3047 4.87151C12.4163 4.75991 12.4721 4.62319 12.4721 4.46136ZM13.9286 2.72028V12.2794C13.9286 12.7314 13.7667 13.1193 13.4431 13.4429C13.1194 13.7666 12.7316 13.9284 12.2796 13.9284H2.72042C2.26841 13.9284 1.88058 13.7666 1.55692 13.4429C1.23326 13.1193 1.07143 12.7314 1.07143 12.2794V2.72028C1.07143 2.26828 1.23326 1.88044 1.55692 1.55678C1.88058 1.23312 2.26841 1.07129 2.72042 1.07129H12.2796C12.7316 1.07129 13.1194 1.23312 13.4431 1.55678C13.7667 1.88044 13.9286 2.26828 13.9286 2.72028Z" fill="white"/>
</g>
<defs>
<clipPath id="clip0">
<rect width="15" height="15" fill="white"/>
</clipPath>
</defs>
</svg>
