<svg width="25" height="25" viewBox="0 0 25 25" fill="none" xmlns="http://www.w3.org/2000/svg">
<path d="M14.9084 12.5053L5.55594 3.15244C5.29842 2.89553 5.15675 2.55203 5.15675 2.18577C5.15675 1.81931 5.29842 1.47602 5.55594 1.2187L6.37545 0.399594C6.63257 0.14187 6.97627 0 7.34253 0C7.70879 0 8.05208 0.14187 8.30939 0.399594L19.445 11.535C19.7033 11.7931 19.8448 12.138 19.8437 12.5047C19.8448 12.873 19.7035 13.2175 19.445 13.4758L8.31976 24.6004C8.06244 24.8581 7.71915 25 7.35269 25C6.98643 25 6.64314 24.8581 6.38562 24.6004L5.56631 23.7813C5.03318 23.2482 5.03318 22.3803 5.56631 21.8474L14.9084 12.5053Z" fill="#0A0A0A"/>
</svg>
