<svg width="40" height="40" viewBox="0 0 40 40" fill="none" xmlns="http://www.w3.org/2000/svg">
<path d="M16.147 20.0085L31.1109 5.0439C31.5229 4.63285 31.7496 4.08325 31.7496 3.49724C31.7496 2.91089 31.5229 2.36163 31.1109 1.94992L29.7997 0.63935C29.3883 0.226992 28.8384 0 28.2524 0C27.6663 0 27.1171 0.226992 26.7054 0.63935L8.88845 18.4559C8.47512 18.8689 8.24878 19.4208 8.25041 20.0075C8.24878 20.5967 8.4748 21.148 8.88845 21.5613L26.6888 39.3606C27.1005 39.773 27.6498 40 28.2361 40C28.8221 40 29.3714 39.773 29.7834 39.3606L31.0943 38.0501C31.9473 37.1971 31.9473 35.8085 31.0943 34.9558L16.147 20.0085Z" fill="white"/>
</svg>
