<svg width="40" height="40" viewBox="0 0 40 40" fill="none" xmlns="http://www.w3.org/2000/svg">
<path d="M23.853 19.9915L8.88914 34.9561C8.47711 35.3672 8.25044 35.9167 8.25044 36.5028C8.25044 37.0891 8.47711 37.6384 8.88914 38.0501L10.2004 39.3607C10.6117 39.773 11.1617 40 11.7477 40C12.3337 40 12.883 39.773 13.2947 39.3607L31.1116 21.5441C31.5249 21.1311 31.7513 20.5792 31.7496 19.9925C31.7513 19.4033 31.5252 18.852 31.1116 18.4387L13.3113 0.639351C12.8995 0.226994 12.3503 0 11.7639 0C11.1779 0 10.6287 0.226994 10.2166 0.639351L8.90573 1.94992C8.05272 2.80293 8.05272 4.19155 8.90573 5.04423L23.853 19.9915Z" fill="white"/>
</svg>
