<svg width="30" height="30" viewBox="0 0 30 30" fill="none" xmlns="http://www.w3.org/2000/svg">
<g clip-path="url(#clip0)">
<path d="M15.8575 13.0053C15.5282 13.3347 15.5282 13.8628 15.8575 14.1922C17.2183 15.553 17.2183 17.7651 15.8575 19.1259L8.71168 26.2717C7.35087 27.6325 5.13877 27.6325 3.77796 26.2717L2.70298 25.1967C1.34217 23.8359 1.34217 21.6238 2.70298 20.263L9.8488 13.1172C10.1781 12.7878 10.1781 12.2597 9.8488 11.9303C9.51947 11.601 8.9913 11.601 8.66197 11.9303L1.51616 19.0762C0.540596 20.0517 0 21.3504 0 22.7298C0 24.1093 0.534383 25.408 1.51616 26.3835L2.59113 27.4585C3.59776 28.4651 4.92129 28.9685 6.24482 28.9685C7.56835 28.9685 8.89188 28.4651 9.89851 27.4585L17.0443 20.3127C19.0576 18.2994 19.0576 15.0186 17.0443 13.0053C16.7212 12.676 16.1868 12.676 15.8575 13.0053Z" fill="white"/>
<path d="M28.4903 3.61642L27.4153 2.54144C25.402 0.52818 22.1212 0.52818 20.1079 2.54144L12.9621 9.68725C10.9488 11.7005 10.9488 14.9814 12.9621 16.9946C13.2914 17.324 13.8196 17.324 14.1489 16.9946C14.4782 16.6653 14.4782 16.1371 14.1489 15.8078C12.7881 14.447 12.7881 12.2349 14.1489 10.8741L21.2947 3.72826C22.6555 2.36745 24.8676 2.36745 26.2285 3.72826L27.3034 4.80324C28.6642 6.16405 28.6642 8.37615 27.3034 9.73696L20.1576 16.8828C19.8283 17.2121 19.8283 17.7403 20.1576 18.0696C20.3192 18.2312 20.5367 18.3182 20.7479 18.3182C20.9592 18.3182 21.1767 18.2374 21.3382 18.0696L28.484 10.9238C29.4596 9.94823 30.0002 8.64956 30.0002 7.2701C30.0002 5.89065 29.4658 4.59197 28.4903 3.61642Z" fill="white"/>
</g>
<defs>
<clipPath id="clip0">
<rect width="30" height="30" fill="white"/>
</clipPath>
</defs>
</svg>
