<svg width="30" height="30" viewBox="0 0 30 30" fill="none" xmlns="http://www.w3.org/2000/svg">
<path d="M27.8126 12.574H27.3475C26.65 10.7629 25.463 9.11692 23.8843 7.78305C23.8843 7.78305 23.8843 7.78305 23.8843 7.77693C23.6518 6.95702 23.8232 6.07593 24.3983 5.15812C24.7165 4.65027 24.7165 4.02004 24.3922 3.51831C24.0679 3.01658 23.4989 2.74735 22.9054 2.82078C20.6965 3.09612 19.381 4.09959 18.61 5.02963C17.8819 4.82771 17.1293 4.68086 16.3706 4.58908C15.9667 4.54013 15.5996 4.82771 15.5568 5.23155C15.5078 5.63538 15.7954 6.0025 16.1993 6.04533C17.0436 6.14323 17.8758 6.32679 18.6773 6.57766C18.9894 6.67556 19.3259 6.55931 19.5095 6.29008C20.0357 5.51301 21.082 4.5279 23.095 4.27703C23.1134 4.27703 23.1379 4.27091 23.1623 4.30762C23.1868 4.34433 23.1685 4.36881 23.1623 4.38105C22.3669 5.64762 22.1344 6.95702 22.4832 8.18076C22.4832 8.18688 22.4832 8.193 22.4832 8.19912C22.4893 8.41327 22.5872 8.61519 22.7585 8.7498C24.3738 10.0531 25.5425 11.7113 26.1421 13.5346C26.24 13.8344 26.5215 14.0425 26.8397 14.0425C26.8458 14.0425 26.8458 14.0425 26.8519 14.0425H27.8248C28.1613 14.0425 28.4305 14.3117 28.4305 14.6482V17.9523C28.4305 18.2889 28.1613 18.5581 27.8248 18.5581H26.8947C26.5705 18.5581 26.289 18.7661 26.1911 19.0782C25.6649 20.8036 24.6186 22.3884 23.1746 23.6733C23.1685 23.6794 23.1685 23.6794 23.1623 23.6856L23.1562 23.6917C23.1012 23.7406 23.0461 23.7835 22.991 23.8324C22.9849 23.8385 22.9788 23.8446 22.9727 23.8446C21.4063 25.2642 21.2472 26.9346 21.2349 27.4118C21.2349 27.418 21.2349 27.4241 21.2349 27.4302V28.5132H16.8234V27.4792C16.8234 27.2711 16.7377 27.0753 16.5786 26.9346C16.4195 26.7939 16.2176 26.7266 16.0096 26.751C15.5201 26.8 15.0306 26.8306 14.5411 26.8306C13.917 26.8306 13.2868 26.7877 12.6749 26.7082C12.4668 26.6776 12.2527 26.7449 12.0936 26.8856C11.9345 27.0264 11.8427 27.2283 11.8427 27.4363V28.5193H7.43115V28.195C7.43115 28.1828 7.43115 28.1706 7.43115 28.1644C7.39444 27.369 7.14357 25.3376 5.55883 23.71C4.80623 22.933 4.13317 21.9111 3.55802 20.669C3.5519 20.6568 3.5519 20.6507 3.54578 20.6446C3.20313 19.9837 2.94614 19.2862 2.7687 18.5703C2.7687 18.5642 2.76258 18.5581 2.76258 18.552C2.76258 18.5458 2.76258 18.5458 2.76258 18.5397C2.59126 17.8361 2.5056 17.1141 2.5056 16.3921C2.5056 15.8842 2.54843 15.3764 2.63409 14.8807C2.7014 14.483 2.43217 14.1037 2.02834 14.0364C1.63062 13.9691 1.25126 14.2383 1.18396 14.6421C1.08606 15.2173 1.03711 15.8108 1.03711 16.3982C1.03711 17.2242 1.13501 18.0563 1.32469 18.864C1.32469 18.8763 1.33081 18.8946 1.33693 18.9068C1.33693 18.9068 1.34304 18.9191 1.34304 18.9436C1.54496 19.7573 1.84478 20.5589 2.23026 21.3115C2.87272 22.7004 3.63756 23.8508 4.50641 24.7441C5.72404 25.9984 5.93207 27.5832 5.96267 28.2256V28.5377C5.96267 28.556 5.96267 28.5744 5.96267 28.5989C5.96267 28.6295 5.96267 28.6601 5.96878 28.6845C6.04221 29.4249 6.67243 29.9939 7.41892 29.9939H11.8489C12.6565 29.9939 13.3112 29.3392 13.3112 28.5316V28.2562C13.9904 28.3113 14.6696 28.3174 15.3488 28.2868V28.5377C15.3488 29.3454 16.0035 30.0001 16.8111 30.0001H21.2411C22.0487 30.0001 22.7034 29.3454 22.7034 28.5377V27.4547C22.7096 27.2038 22.8075 25.9923 23.9517 24.9521C24.0067 24.9032 24.0618 24.8542 24.1169 24.8053C24.123 24.7992 24.123 24.7992 24.1291 24.793C24.1413 24.7808 24.1597 24.7686 24.1719 24.7563C25.6588 23.4286 26.7724 21.801 27.4148 20.0327H27.8126C28.9567 20.0327 29.8868 19.1026 29.8868 17.9584V14.6544C29.8868 13.504 28.9567 12.574 27.8126 12.574Z" fill="white"/>
<path d="M7.30276 14.379C11.2677 14.379 14.4922 11.1544 14.4922 7.18948C14.4922 3.22456 11.2677 0 7.30276 0C3.33784 0 0.113281 3.22456 0.113281 7.18948C0.113281 11.1544 3.33784 14.379 7.30276 14.379ZM7.30276 1.46849C10.46 1.46849 13.0237 4.03223 13.0237 7.18948C13.0237 10.3467 10.46 12.9105 7.30276 12.9105C4.14551 12.9105 1.58177 10.3467 1.58177 7.18948C1.58177 4.03223 4.14551 1.46849 7.30276 1.46849Z" fill="white"/>
</svg>
