<svg width="30" height="30" viewBox="0 0 30 30" fill="none" xmlns="http://www.w3.org/2000/svg">
<path d="M8.64802 1.97206C8.64802 0.887427 7.76041 0 6.67555 0H1.97246C0.887608 0 0 0.887427 0 1.97206V6.66803C0 7.75266 0.887608 8.64009 1.97246 8.64009H6.66939C7.75424 8.64009 8.64185 7.75266 8.64185 6.66803V1.97206H8.64802ZM7.13785 6.67419C7.13785 6.92686 6.92828 7.13639 6.67555 7.13639H1.97246C1.71974 7.13639 1.51017 6.92686 1.51017 6.67419V1.97206C1.51017 1.71939 1.71974 1.50986 1.97246 1.50986H6.66939C6.92211 1.50986 7.13169 1.71939 7.13169 1.97206V6.67419H7.13785Z" fill="white"/>
<path d="M8.64802 12.6521C8.64802 11.5675 7.76041 10.6801 6.67555 10.6801H1.97246C0.887608 10.6801 0 11.5675 0 12.6521V17.3481C0 18.4327 0.887608 19.3201 1.97246 19.3201H6.66939C7.75424 19.3201 8.64185 18.4327 8.64185 17.3481V12.6521H8.64802ZM7.13785 17.3481C7.13785 17.6008 6.92828 17.8103 6.67555 17.8103H1.97246C1.71974 17.8103 1.51017 17.6008 1.51017 17.3481V12.6521C1.51017 12.3994 1.71974 12.1899 1.97246 12.1899H6.66939C6.92211 12.1899 7.13169 12.3994 7.13169 12.6521V17.3481H7.13785Z" fill="white"/>
<path d="M6.67558 21.3538H1.97247C0.887611 21.3538 0 22.2412 0 23.3258V28.0218C0 29.1065 0.887611 29.9939 1.97247 29.9939H6.66941C7.75427 29.9939 8.64188 29.1065 8.64188 28.0218V23.3258C8.64804 22.2412 7.76043 21.3538 6.67558 21.3538ZM7.13787 28.028C7.13787 28.2807 6.9283 28.4902 6.67558 28.4902H1.97247C1.71975 28.4902 1.51017 28.2807 1.51017 28.028V23.332C1.51017 23.0793 1.71975 22.8698 1.97247 22.8698H6.66941C6.92213 22.8698 7.13171 23.0793 7.13171 23.332V28.028H7.13787Z" fill="white"/>
<path d="M10.6826 17.348C10.6826 18.4326 11.5702 19.32 12.6551 19.32H17.3521C18.4369 19.32 19.3245 18.4326 19.3245 17.348V12.652C19.3245 11.5674 18.4369 10.6799 17.3521 10.6799H12.6551C11.5702 10.6799 10.6826 11.5674 10.6826 12.652V17.348ZM12.1928 12.652C12.1928 12.3993 12.4024 12.1898 12.6551 12.1898H17.3521C17.6048 12.1898 17.8144 12.3993 17.8144 12.652V17.348C17.8144 17.6006 17.6048 17.8102 17.3521 17.8102H12.6551C12.4024 17.8102 12.1928 17.6006 12.1928 17.348V12.652Z" fill="white"/>
<path d="M10.6826 28.0279C10.6826 29.1125 11.5702 30 12.6551 30H17.3521C18.4369 30 19.3245 29.1125 19.3245 28.0279V23.3319C19.3245 22.2473 18.4369 21.3599 17.3521 21.3599H12.6551C11.5702 21.3599 10.6826 22.2473 10.6826 23.3319V28.0279ZM12.1928 23.3258C12.1928 23.0731 12.4024 22.8636 12.6551 22.8636H17.3521C17.6048 22.8636 17.8144 23.0731 17.8144 23.3258V28.0217C17.8144 28.2744 17.6048 28.4839 17.3521 28.4839H12.6551C12.4024 28.4839 12.1928 28.2744 12.1928 28.0217V23.3258Z" fill="white"/>
<path d="M21.3579 17.348C21.3579 18.4326 22.2455 19.32 23.3304 19.32H28.0273C29.1122 19.32 29.9998 18.4326 29.9998 17.348V12.652C29.9998 11.5674 29.1122 10.6799 28.0273 10.6799H23.3304C22.2455 10.6799 21.3579 11.5674 21.3579 12.652V17.348ZM22.8681 12.652C22.8681 12.3993 23.0777 12.1898 23.3304 12.1898H28.0273C28.28 12.1898 28.4896 12.3993 28.4896 12.652V17.348C28.4896 17.6006 28.28 17.8102 28.0273 17.8102H23.3304C23.0777 17.8102 22.8681 17.6006 22.8681 17.348V12.652Z" fill="white"/>
<path d="M21.3579 28.0279C21.3579 29.1125 22.2455 30 23.3304 30H28.0273C29.1122 30 29.9998 29.1125 29.9998 28.0279V23.3319C29.9998 22.2473 29.1122 21.3599 28.0273 21.3599H23.3304C22.2455 21.3599 21.3579 22.2473 21.3579 23.3319V28.0279ZM22.8681 23.3258C22.8681 23.0731 23.0777 22.8636 23.3304 22.8636H28.0273C28.28 22.8636 28.4896 23.0731 28.4896 23.3258V28.0217C28.4896 28.2744 28.28 28.4839 28.0273 28.4839H23.3304C23.0777 28.4839 22.8681 28.2744 22.8681 28.0217V23.3258Z" fill="white"/>
<path d="M10.6826 1.97206V6.66803C10.6826 7.75266 11.5702 8.64009 12.6551 8.64009H17.3521C18.4369 8.64009 19.3245 7.75266 19.3245 6.66803V1.97206C19.3245 0.887427 18.4369 0 17.3521 0H12.6551C11.5641 0 10.6826 0.887427 10.6826 1.97206ZM12.1928 1.97206C12.1928 1.71939 12.4024 1.50986 12.6551 1.50986H17.3521C17.6048 1.50986 17.8144 1.71939 17.8144 1.97206V6.66803C17.8144 6.9207 17.6048 7.13023 17.3521 7.13023H12.6551C12.4024 7.13023 12.1928 6.9207 12.1928 6.66803V1.97206Z" fill="white"/>
<path d="M23.3304 8.6462H28.0273C29.1122 8.6462 29.9998 7.75878 29.9998 6.67415V1.97205C29.9998 0.887422 29.1122 0 28.0273 0H23.3304C22.2455 0 21.3579 0.887422 21.3579 1.97205V6.66799C21.3579 7.75878 22.2455 8.6462 23.3304 8.6462ZM22.8681 1.97205C22.8681 1.71938 23.0777 1.50985 23.3304 1.50985H28.0273C28.28 1.50985 28.4896 1.71938 28.4896 1.97205V6.66799C28.4896 6.92066 28.28 7.13019 28.0273 7.13019H23.3304C23.0777 7.13019 22.8681 6.92066 22.8681 6.66799V1.97205Z" fill="white"/>
</svg>
