<svg width="30" height="30" viewBox="0 0 30 30" fill="none" xmlns="http://www.w3.org/2000/svg">
<path d="M15.0281 15.4407C14.9261 15.7703 15.1105 16.12 15.4407 16.2219C15.5018 16.2408 15.564 16.25 15.625 16.25C15.8924 16.25 16.1395 16.0778 16.222 15.8093C16.4352 15.1192 16.6773 14.4841 16.9359 13.8749C17.8238 14.6068 18.8139 15 19.8993 15C24.8023 15 28.75 8.35999 28.75 2.86197C28.75 1.97328 28.0267 1.25006 27.1381 1.25006C21.64 1.25 15 5.19775 15 10.1007C15 11.1274 15.3486 12.0698 16.0044 12.9213C15.6422 13.7077 15.3089 14.5315 15.0281 15.4407ZM27.138 2.50004C27.3376 2.50004 27.5 2.6624 27.5 2.86197C27.5 7.7631 23.9929 13.75 19.8993 13.75C19.016 13.75 18.203 13.3911 17.4769 12.7023C18.9645 9.85823 21.1644 7.90255 24.6509 6.18593C24.9609 6.03335 25.0878 5.65859 24.9359 5.34916C24.7827 5.03908 24.4073 4.91334 24.0991 5.0641C20.5954 6.78927 18.2682 8.82751 16.6585 11.6415C16.3975 11.1554 16.2501 10.6427 16.2501 10.1007C16.25 6.0071 22.2369 2.50004 27.138 2.50004Z" fill="white"/>
<path d="M26.25 20.625C25.03 20.625 22.4998 21.3049 21.2177 21.6732C21.0476 19.8795 18.7494 19.2446 16.3739 18.7622C15.2905 18.5425 14.4837 18.1537 13.7036 17.7771C12.7417 17.3132 11.8335 16.875 10.625 16.875C9.2407 16.875 7.98012 17.1579 7.26844 17.3538C7.08023 16.6994 6.54609 16.1717 5.83799 16.0303L0.747656 15.0122C0.56332 14.9774 0.373535 15.0232 0.228867 15.1416C0.0842578 15.2606 0 15.4377 0 15.625V25.6251C0 25.9705 0.279551 26.25 0.62502 26.25H4.54102C5.3124 26.25 5.96977 25.7589 6.25266 25.0695C7.65158 25.7365 14.1243 28.75 16.875 28.75C19.2993 28.75 24.2889 26.297 27.5903 24.6741C28.4521 24.2505 29.1645 23.9002 29.6265 23.6975C29.8535 23.5974 30 23.3728 30 23.125C30 21.6529 28.4583 20.625 26.25 20.625ZM6.08889 17.9572L5.1593 24.4635C5.11594 24.7693 4.84986 25 4.54102 25H1.24998V16.3873L5.59266 17.2559C5.91797 17.3212 6.13588 17.6288 6.08889 17.9572ZM27.0386 23.5522C24.0356 25.0287 19.0088 27.5 16.875 27.5C14.6014 27.5 8.63156 24.8383 6.52342 23.8129C6.5209 23.8116 6.51814 23.8121 6.51562 23.8109L7.25139 18.6606C7.70602 18.5182 9.09785 18.125 10.625 18.125C11.5472 18.125 12.2595 18.4687 13.161 18.9032C13.9703 19.2938 14.8883 19.7363 16.1255 19.9878C18.8415 20.5383 20 21.1029 20 21.8749C20 22.0275 19.9536 22.1215 19.8346 22.21C19.4385 22.5067 17.8876 23.0059 12.0526 21.2756C11.7224 21.1773 11.3739 21.3672 11.2756 21.6973C11.1773 22.0282 11.3665 22.376 11.6974 22.4743C14.5758 23.3276 16.7773 23.753 18.3374 23.753C19.3549 23.753 20.0995 23.5723 20.5823 23.2116C20.6239 23.1805 20.6544 23.1424 20.6923 23.109C20.7313 23.1047 20.7698 23.1095 20.8088 23.0974C21.9141 22.7576 25.0452 21.875 26.25 21.875C27.2693 21.875 28.3417 22.1851 28.6579 22.7661C28.2214 22.9712 27.6691 23.2428 27.0386 23.5522Z" fill="white"/>
</svg>
