<svg width="30" height="30" viewBox="0 0 30 30" fill="none" xmlns="http://www.w3.org/2000/svg">
<path d="M27.8126 12.5739H27.3475C26.65 10.7628 25.463 9.11686 23.8843 7.78298C23.8843 7.78298 23.8843 7.78298 23.8843 7.77687C23.6518 6.95696 23.8232 6.07587 24.3983 5.15806C24.7165 4.65021 24.7165 4.01998 24.3922 3.51825C24.0679 3.01651 23.4989 2.74729 22.9054 2.82072C20.6965 3.09606 19.381 4.09953 18.61 5.02957C17.8819 4.82765 17.1293 4.6808 16.3706 4.58902C15.9667 4.54007 15.5996 4.82765 15.5568 5.23149C15.5078 5.63532 15.7954 6.00244 16.1993 6.04527C17.0436 6.14317 17.8758 6.32673 18.6773 6.5776C18.9894 6.6755 19.3259 6.55924 19.5095 6.29002C20.0357 5.51295 21.082 4.52783 23.095 4.27697C23.1134 4.27697 23.1379 4.27085 23.1623 4.30756C23.1868 4.34427 23.1685 4.36875 23.1623 4.38099C22.3669 5.64756 22.1344 6.95696 22.4832 8.1807C22.4832 8.18682 22.4832 8.19294 22.4832 8.19906C22.4893 8.41321 22.5872 8.61513 22.7585 8.74974C24.3738 10.053 25.5425 11.7112 26.1421 13.5346C26.24 13.8344 26.5215 14.0424 26.8397 14.0424C26.8458 14.0424 26.8458 14.0424 26.8519 14.0424H27.8248C28.1613 14.0424 28.4305 14.3116 28.4305 14.6482V17.9523C28.4305 18.2888 28.1613 18.558 27.8248 18.558H26.8947C26.5705 18.558 26.289 18.7661 26.1911 19.0781C25.6649 20.8036 24.6186 22.3883 23.1746 23.6733C23.1685 23.6794 23.1685 23.6794 23.1623 23.6855L23.1562 23.6916C23.1012 23.7406 23.0461 23.7834 22.991 23.8323C22.9849 23.8385 22.9788 23.8446 22.9727 23.8446C21.4063 25.2641 21.2472 26.9345 21.2349 27.4118C21.2349 27.4179 21.2349 27.424 21.2349 27.4301V28.5132H16.8234V27.4791C16.8234 27.2711 16.7377 27.0753 16.5786 26.9345C16.4195 26.7938 16.2176 26.7265 16.0096 26.751C15.5201 26.7999 15.0306 26.8305 14.5411 26.8305C13.917 26.8305 13.2868 26.7877 12.6749 26.7081C12.4668 26.6775 12.2527 26.7448 12.0936 26.8856C11.9345 27.0263 11.8427 27.2282 11.8427 27.4363V28.5193H7.43115V28.195C7.43115 28.1827 7.43115 28.1705 7.43115 28.1644C7.39444 27.369 7.14357 25.3375 5.55883 23.71C4.80623 22.9329 4.13317 21.9111 3.55802 20.669C3.5519 20.6567 3.5519 20.6506 3.54578 20.6445C3.20313 19.9837 2.94614 19.2861 2.7687 18.5703C2.7687 18.5641 2.76258 18.558 2.76258 18.5519C2.76258 18.5458 2.76258 18.5458 2.76258 18.5397C2.59126 17.836 2.5056 17.114 2.5056 16.392C2.5056 15.8841 2.54843 15.3763 2.63409 14.8807C2.7014 14.483 2.43217 14.1036 2.02834 14.0363C1.63062 13.969 1.25126 14.2382 1.18396 14.6421C1.08606 15.2172 1.03711 15.8107 1.03711 16.3981C1.03711 17.2241 1.13501 18.0563 1.32469 18.864C1.32469 18.8762 1.33081 18.8945 1.33693 18.9068C1.33693 18.9068 1.34304 18.919 1.34304 18.9435C1.54496 19.7573 1.84478 20.5588 2.23026 21.3114C2.87272 22.7004 3.63756 23.8507 4.50641 24.744C5.72404 25.9984 5.93207 27.5831 5.96267 28.2256V28.5376C5.96267 28.556 5.96267 28.5743 5.96267 28.5988C5.96267 28.6294 5.96267 28.66 5.96878 28.6845C6.04221 29.4248 6.67243 29.9939 7.41892 29.9939H11.8489C12.6565 29.9939 13.3112 29.3392 13.3112 28.5315V28.2562C13.9904 28.3112 14.6696 28.3174 15.3488 28.2868V28.5376C15.3488 29.3453 16.0035 30 16.8111 30H21.2411C22.0487 30 22.7034 29.3453 22.7034 28.5376V27.4546C22.7096 27.2037 22.8075 25.9922 23.9517 24.9521C24.0067 24.9031 24.0618 24.8542 24.1169 24.8052C24.123 24.7991 24.123 24.7991 24.1291 24.793C24.1413 24.7807 24.1597 24.7685 24.1719 24.7563C25.6588 23.4285 26.7724 21.8009 27.4148 20.0326H27.8126C28.9567 20.0326 29.8868 19.1026 29.8868 17.9584V14.6543C29.8868 13.504 28.9567 12.5739 27.8126 12.5739Z" fill="white"/>
<path d="M7.30276 14.379C11.2677 14.379 14.4922 11.1544 14.4922 7.18948C14.4922 3.22456 11.2677 0 7.30276 0C3.33784 0 0.113281 3.22456 0.113281 7.18948C0.113281 11.1544 3.33784 14.379 7.30276 14.379ZM7.30276 1.46849C10.46 1.46849 13.0237 4.03223 13.0237 7.18948C13.0237 10.3467 10.46 12.9105 7.30276 12.9105C4.14551 12.9105 1.58177 10.3467 1.58177 7.18948C1.58177 4.03223 4.14551 1.46849 7.30276 1.46849Z" fill="white"/>
</svg>
