<svg width="15" height="15" viewBox="0 0 15 15" fill="none" xmlns="http://www.w3.org/2000/svg">
<path d="M7.50061 0C4.45587 0 1.97852 2.47736 1.97852 5.5224C1.97852 6.31666 2.14108 7.07501 2.46146 7.77655C3.84214 10.7978 6.48928 13.9876 7.26788 14.8932C7.32622 14.9609 7.41126 14.9998 7.50076 14.9998C7.59026 14.9998 7.6753 14.9609 7.73364 14.8932C8.51194 13.9878 11.1591 10.7981 12.5402 7.77655C12.8607 7.07501 13.0232 6.31666 13.0232 5.5224C13.0229 2.47736 10.5455 0 7.50061 0ZM7.50061 8.39075C5.91898 8.39075 4.6321 7.10387 4.6321 5.52224C4.6321 3.94047 5.91898 2.65359 7.50061 2.65359C9.08223 2.65359 10.3691 3.94047 10.3691 5.52224C10.3693 7.10387 9.08238 8.39075 7.50061 8.39075Z" fill="black"/>
</svg>
