<svg width="15" height="15" viewBox="0 0 15 15" fill="none" xmlns="http://www.w3.org/2000/svg">
<g clip-path="url(#clip0)">
<path d="M14.7957 7.00679L10.332 2.54303C10.0596 2.27069 9.61794 2.27069 9.34559 2.54303C9.07319 2.81543 9.07319 3.25701 9.34559 3.52941L12.6187 6.80252H0.697462C0.312295 6.80252 0 7.11481 0 7.49998C0 7.88509 0.312295 8.19744 0.697462 8.19744H12.6187L9.34571 11.4705C9.07331 11.7429 9.07331 12.1845 9.34571 12.4569C9.48185 12.593 9.6604 12.6612 9.83889 12.6612C10.0174 12.6612 10.1959 12.593 10.3321 12.4569L14.7957 7.99317C15.0681 7.72077 15.0681 7.27919 14.7957 7.00679Z" fill="#682B2A"/>
</g>
<defs>
<clipPath id="clip0">
<rect width="15" height="15" fill="white"/>
</clipPath>
</defs>
</svg>
