<svg width="30" height="30" viewBox="0 0 30 30" fill="none" xmlns="http://www.w3.org/2000/svg">
<path d="M8.07617 13.9258C9.8479 13.9258 11.2891 12.4846 11.2891 10.7135C11.2891 8.94115 9.8479 7.5 8.07617 7.5C6.30444 7.5 4.86328 8.94115 4.86328 10.7129C4.86328 12.4846 6.30444 13.9258 8.07617 13.9258ZM8.07617 8.65385C9.21155 8.65385 10.1352 9.57808 10.1352 10.7129C10.1352 11.8477 9.21155 12.7719 8.07617 12.7719C6.94078 12.7719 6.01713 11.8483 6.01713 10.7135C6.01713 9.57865 6.94078 8.65385 8.07617 8.65385Z" fill="#8D8D8D"/>
<path d="M0.576172 0V23.0769V30H29.4223V23.0769V0H0.576172ZM1.73002 1.15385H28.2685V16.5733L22.3123 11.1133C22.1992 11.01 22.0504 10.9587 21.8969 10.9621C21.7441 10.969 21.5998 11.0365 21.4966 11.1496L15.8462 17.3383L13.1098 14.6019C12.8941 14.3867 12.5491 14.3758 12.3206 14.5765L2.66579 23.0769H1.73002V1.15385ZM28.2685 28.8462H1.73002V24.2308H28.2685V28.8462ZM4.41213 23.0769L12.676 15.8013L18.6194 21.7442C18.845 21.9698 19.2096 21.9698 19.4352 21.7442C19.6608 21.5187 19.6608 21.154 19.4352 20.9285L16.6619 18.1552L21.9587 12.3548L28.2685 18.1385V23.0769H4.41213Z" fill="#8D8D8D"/>
</svg>
