<svg width="30" height="31" viewBox="0 0 30 31" fill="none" xmlns="http://www.w3.org/2000/svg">
<g clip-path="url(#clip0)">
<path d="M17.7488 15.2704L29.4305 3.58843C30.1907 2.82856 30.1907 1.59997 29.4305 0.840102C28.6706 0.0802363 27.442 0.0802363 26.6821 0.840102L15.0001 12.5221L3.31849 0.840102C2.55827 0.0802363 1.33003 0.0802363 0.570166 0.840102C-0.190055 1.59997 -0.190055 2.82856 0.570166 3.58843L12.2518 15.2704L0.570166 26.9524C-0.190055 27.7123 -0.190055 28.9409 0.570166 29.7007C0.948853 30.0798 1.44677 30.2702 1.94433 30.2702C2.44189 30.2702 2.93945 30.0798 3.31849 29.7007L15.0001 18.0188L26.6821 29.7007C27.0612 30.0798 27.5587 30.2702 28.0563 30.2702C28.5539 30.2702 29.0514 30.0798 29.4305 29.7007C30.1907 28.9409 30.1907 27.7123 29.4305 26.9524L17.7488 15.2704Z" fill="#1D1D1D"/>
</g>
<defs>
<clipPath id="clip0">
<rect width="30.0006" height="31" fill="white"/>
</clipPath>
</defs>
</svg>
