<svg width="20" height="20" viewBox="0 0 20 20" fill="none" xmlns="http://www.w3.org/2000/svg">
<g clip-path="url(#clip0)">
<path d="M19.5511 15.8057L16.4624 12.7167C15.8472 12.1039 14.8284 12.1226 14.1918 12.7594L12.6357 14.3152C12.5374 14.261 12.4356 14.2044 12.3286 14.1444C11.346 13.5999 10.0011 12.8536 8.58579 11.4373C7.16634 10.018 6.41938 8.67103 5.87323 7.68774C5.8156 7.58357 5.76038 7.48313 5.70586 7.38775L6.75022 6.34494L7.26367 5.83085C7.90129 5.19306 7.91887 4.17455 7.3051 3.56003L4.21641 0.470661C3.60264 -0.142996 2.58339 -0.12438 1.94577 0.51341L1.07527 1.38891L1.09906 1.41252C0.807169 1.78497 0.563258 2.21453 0.381746 2.67776C0.214427 3.1187 0.110254 3.53946 0.0626212 3.9611C-0.34522 7.34219 1.19984 10.4323 5.39294 14.6254C11.1891 20.4211 15.86 19.9833 16.0615 19.9619C16.5004 19.9095 16.921 19.8046 17.3484 19.6386C17.8076 19.4592 18.2369 19.2157 18.6091 18.9244L18.6281 18.9413L19.51 18.0777C20.1463 17.4401 20.1646 16.4212 19.5511 15.8057Z" fill="black"/>
</g>
<defs>
<clipPath id="clip0">
<rect width="20" height="20" fill="white"/>
</clipPath>
</defs>
</svg>
