<svg width="10" height="10" viewBox="0 0 10 10" fill="none" xmlns="http://www.w3.org/2000/svg">
<path d="M5.64541 5.00211L2.11619 1.26098C2.01901 1.15821 1.96555 1.02081 1.96555 0.874309C1.96555 0.727724 2.01901 0.590406 2.11619 0.48748L2.42544 0.159837C2.52246 0.056748 2.65216 0 2.79037 0C2.92858 0 3.05813 0.056748 3.15523 0.159837L7.35733 4.61398C7.45481 4.71724 7.50819 4.8552 7.50781 5.00187C7.50819 5.14919 7.45489 5.28699 7.35733 5.39033L3.15914 9.84016C3.06204 9.94325 2.93249 10 2.79421 10C2.65599 10 2.52645 9.94325 2.42927 9.84016L2.1201 9.51252C1.91892 9.29927 1.91892 8.95211 2.1201 8.73894L5.64541 5.00211Z" fill="#8D8D8D"/>
</svg>
