<svg width="15" height="15" viewBox="0 0 15 15" fill="none" xmlns="http://www.w3.org/2000/svg">
<path d="M8.94503 7.50317L3.33356 1.89146C3.17905 1.73732 3.09405 1.53122 3.09405 1.31146C3.09405 1.09159 3.17905 0.88561 3.33356 0.73122L3.82527 0.239756C3.97954 0.0851219 4.18576 0 4.40552 0C4.62527 0 4.83125 0.0851219 4.98564 0.239756L11.667 6.92098C11.822 7.07585 11.9069 7.2828 11.9062 7.5028C11.9069 7.72378 11.8221 7.93049 11.667 8.08549L4.99186 14.7602C4.83747 14.9149 4.63149 15 4.41161 15C4.19186 15 3.98588 14.9149 3.83137 14.7602L3.33978 14.2688C3.01991 13.9489 3.01991 13.4282 3.33978 13.1084L8.94503 7.50317Z" fill="#0A0A0A"/>
</svg>
