<svg width="10" height="10" viewBox="0 0 10 10" fill="none" xmlns="http://www.w3.org/2000/svg">
<path d="M5.96335 5.00211L2.22238 1.26098C2.11937 1.15821 2.0627 1.02081 2.0627 0.874309C2.0627 0.727724 2.11937 0.590406 2.22238 0.48748L2.55018 0.159837C2.65303 0.056748 2.79051 0 2.93701 0C3.08351 0 3.22083 0.056748 3.32376 0.159837L7.77799 4.61398C7.88132 4.71724 7.9379 4.8552 7.9375 5.00187C7.9379 5.14919 7.8814 5.28699 7.77799 5.39033L3.3279 9.84016C3.22498 9.94325 3.08766 10 2.94108 10C2.79457 10 2.65725 9.94325 2.55425 9.84016L2.22652 9.51252C2.01327 9.29927 2.01327 8.95211 2.22652 8.73894L5.96335 5.00211Z" fill="white"/>
</svg>
