<svg width="70" height="64" viewBox="0 0 70 64" fill="none" xmlns="http://www.w3.org/2000/svg">
<path d="M4.67833 45.188C4.83566 44.8892 5.11596 44.6747 5.44485 44.6015C5.52781 44.5831 12.1903 43.1097 20.682 41.9333C20.6939 41.8945 20.702 41.8554 20.7184 41.8174C24.4625 33.058 25.7024 33.058 26.3685 33.058C27.1715 33.058 31.1608 33.8801 34.4085 34.5791V26.1482C34.3599 26.1482 34.3116 26.1444 34.2636 26.1382C33.1506 26.4355 32.021 26.5822 30.9005 26.5822C27.5048 26.5822 24.1962 25.2463 21.712 22.7557C18.2688 19.3032 17.0387 14.2632 18.5018 9.60258C18.6143 9.24365 18.8946 8.96261 19.2526 8.84977C23.9005 7.38318 28.9272 8.61623 32.371 12.0686C32.9069 12.606 33.3826 13.1856 33.8095 13.7924C34.2377 10.3844 35.7748 7.1516 38.2961 4.62361C42.4571 0.451825 48.5309 -1.03827 54.148 0.734464C54.5059 0.847298 54.786 1.12834 54.8987 1.48714C56.6668 7.11912 55.1802 13.2092 51.0195 17.3812C48.0174 20.3912 44.0201 22.005 39.9164 22.005C38.8481 22.005 37.7727 21.8927 36.7055 21.6699V35.0792C37.1505 35.1771 37.5457 35.2646 37.8684 35.3363C40.2708 34.8716 44.2253 34.3627 45.5578 35.6985L47.6631 37.8096L50.8517 38.8752C54.7239 40.1695 56.0509 45.9064 56.1962 46.5903C57.5115 45.7926 58.8094 44.8443 60.0573 43.7183C60.2682 43.528 60.5418 43.4226 60.8257 43.4226C63.369 43.4226 64.2715 44.6634 64.2715 45.7258C64.2715 46.0574 64.2715 46.6749 61.8573 49.4828C60.9246 50.5675 58.9584 52.738 56.2679 55.0873C52.1344 58.697 45.9828 63 40.1513 63C33.4323 63 28.6285 61.5829 25.1209 60.548C23.2215 59.9877 21.7211 59.5452 20.6255 59.5452C17.1249 59.5452 10.3845 58.4256 10.0995 58.378C9.70368 58.3118 9.37098 58.0433 9.22187 57.6696L4.62752 46.1534C4.50234 45.8398 4.521 45.4867 4.67833 45.188ZM30.7464 13.6975C28.0546 10.9985 24.1875 9.94649 20.5266 10.8802C19.5953 14.5505 20.6446 18.4281 23.3364 21.127C25.7992 23.5964 29.2453 24.6821 32.6178 24.1345C31.6853 22.5856 30.374 20.8069 29.3004 20.2686C28.7332 19.9843 28.5032 19.2925 28.7869 18.7235C29.0706 18.1549 29.7608 17.9242 30.3279 18.2086C31.6697 18.8813 32.9355 20.4276 33.8744 21.8222C34.0239 18.8318 32.9226 15.8794 30.7464 13.6975ZM41.9369 13.2871C38.9241 15.301 37.8365 19.4526 37.8195 19.5195C37.8187 19.5226 37.8172 19.5253 37.8164 19.5284C42.0254 20.1951 46.3213 18.8342 49.395 15.7525C52.8051 12.3335 54.1116 7.40533 52.8765 2.76191C48.2457 1.52442 43.3302 2.8334 39.9202 6.25262C36.944 9.23663 35.5712 13.3704 36.091 17.4611C36.7552 15.773 38.1472 13.0521 40.6628 11.3708C41.1911 11.0176 41.904 11.161 42.2556 11.6902C42.6075 12.2192 42.4649 12.9343 41.9369 13.2871ZM53.9564 47.1033C53.6733 45.6839 52.4332 41.8316 50.1252 41.0602L46.6795 39.9086C46.5104 39.852 46.3567 39.7568 46.2306 39.6304L43.9518 37.3456C43.3875 36.9974 40.603 37.1371 38.0791 37.642C37.9224 37.6733 37.7607 37.6717 37.6049 37.637C33.0392 36.6197 27.9694 35.5623 26.6314 35.3864C25.9663 36.1214 24.5364 38.8914 23.3293 41.5844C24.6619 41.4186 26.0247 41.2631 27.4027 41.125C38.8128 39.9805 45.3801 40.9681 46.9215 44.059C47.2305 44.6788 47.2104 45.3545 46.8662 45.9128C45.9154 47.4554 42.539 48.029 34.4085 48.029C33.2505 48.029 32.7135 48.3346 32.6054 48.5964C32.5093 48.8286 32.6303 49.2013 32.8876 49.4805C33.4747 49.8308 37.3465 50.951 42.923 50.5993C46.0663 50.4006 50.1605 49.683 54.2441 47.6607C54.1033 47.5097 53.9999 47.3206 53.9564 47.1033ZM11.113 56.2084C12.8832 56.4877 17.9131 57.2419 20.6255 57.2419C22.0522 57.2419 23.6925 57.7257 25.7692 58.3384C29.1429 59.3337 33.7631 60.6967 40.1513 60.6967C45.1179 60.6967 50.5942 56.9109 54.3137 53.7351C58.2743 50.3534 60.9706 47.0684 61.7799 45.8571C61.6239 45.8134 61.4287 45.7761 61.2306 45.7525C54.9797 51.1994 47.7003 52.6621 42.651 52.9217C37.4356 53.1902 32.3557 52.2056 31.2991 51.1465C30.3544 50.1992 30.0264 48.8201 30.483 47.7149C30.7899 46.9719 31.708 45.7257 34.4085 45.7257C41.5638 45.7257 43.9336 45.2273 44.6913 44.8367C43.9645 44.011 40.8287 42.0941 27.6313 43.4167C18.715 44.3108 10.4088 45.9219 7.26777 46.5694L11.113 56.2084Z" fill="black"/>
</svg>
