<svg width="70" height="64" viewBox="0 0 70 64" fill="none" xmlns="http://www.w3.org/2000/svg">
<g clip-path="url(#clip0)">
<g clip-path="url(#clip1)">
<path d="M62.5196 18.9002L59.0838 15.4554C59.0316 15.3354 58.9553 15.2216 58.8542 15.1202C58.7531 15.0188 58.6396 14.9424 58.5199 14.89L43.9836 0.315213C43.5648 -0.104746 42.9364 -0.104746 42.5174 0.315213L0.314138 42.6302C-0.104713 43.0501 -0.104713 43.6801 0.314138 44.1002L18.8501 62.6852C19.0596 62.8953 19.2689 63.0002 19.5831 63.0002C19.8973 63.0002 20.1068 62.8953 20.3161 62.6852L62.5196 20.3703C62.9384 19.9502 62.9384 19.3202 62.5196 18.9002ZM19.5831 60.4802L17.3839 58.2752L25.5523 50.0852C25.9712 49.6653 25.9712 49.0353 25.5523 48.6152C25.1335 48.1952 24.5051 48.1952 24.0862 48.6152L15.9178 56.8052L13.6139 54.4952L16.5461 51.5553C16.965 51.1353 16.965 50.5053 16.5461 50.0852C16.1273 49.6651 15.4989 49.6653 15.0799 50.0852L12.1477 53.0252L9.94857 50.8202L18.117 42.6302C18.5358 42.2102 18.5358 41.5802 18.117 41.1601C17.6981 40.7402 17.0698 40.7402 16.6508 41.1601L8.4824 49.3501L6.28322 47.1451L18.117 35.2801C18.5358 34.8601 18.5358 34.2301 18.117 33.8101C17.6981 33.39 17.0698 33.3901 16.6508 33.8101L4.81718 45.6752L2.51332 43.3653L43.2506 2.52021L49.2198 8.50521L41.7844 15.9603C41.3656 16.3802 41.3656 17.0102 41.7844 17.4303C41.9939 17.6403 42.2033 17.7453 42.5174 17.7453C42.8316 17.7453 43.0411 17.6403 43.2505 17.4303L50.6858 9.97526L52.9374 12.2328L49.9528 15.2253C49.534 15.6453 49.534 16.2753 49.9528 16.6953C50.1623 16.9054 50.3717 17.0103 50.6858 17.0103C51 17.0103 51.2095 16.9054 51.4188 16.6953L54.4035 13.7028L56.6026 15.9078L52.1519 20.3704C51.733 20.7903 51.733 21.4203 52.1519 21.8404C52.3614 22.0505 52.5707 22.1554 52.8849 22.1554C53.1991 22.1554 53.4085 22.0505 53.6179 21.8404L58.0687 17.3779L60.3203 19.6354L19.5831 60.4802Z" fill="black"/>
<path d="M22.516 30.345C22.8302 30.345 23.1444 30.24 23.2491 30.03L32.8836 20.3699C33.3025 19.95 33.3025 19.32 32.8836 18.8999C32.4648 18.4798 31.8364 18.4799 31.4174 18.8999L21.7829 28.5599C21.364 28.9799 21.364 29.6099 21.7829 30.03C21.9924 30.24 22.2019 30.345 22.516 30.345Z" fill="black"/>
<path d="M35.9203 17.01C36.1298 17.01 36.444 16.905 36.6533 16.695L43.3556 9.97503C43.7744 9.55507 43.7744 8.92507 43.3556 8.50499C42.9367 8.08491 42.3084 8.08503 41.8894 8.50499L35.1872 15.2249C34.7683 15.6449 34.7683 16.2749 35.1872 16.695C35.3968 16.905 35.6062 17.01 35.9203 17.01Z" fill="black"/>
<path d="M38.8517 18.9L32.8825 24.885C32.4636 25.3049 32.4636 25.9349 32.8825 26.355C33.092 26.5651 33.3014 26.67 33.6155 26.67C33.9297 26.67 34.2439 26.5651 34.3485 26.355L40.3177 20.37C40.7366 19.9501 40.7366 19.3201 40.3177 18.9C39.8989 18.48 39.2706 18.48 38.8517 18.9Z" fill="black"/>
<path d="M41.0506 25.515C41.2601 25.725 41.4694 25.83 41.7836 25.83C42.0978 25.83 42.3072 25.725 42.5166 25.515L47.7528 20.265C48.1717 19.845 48.1717 19.215 47.7528 18.7949C47.334 18.375 46.7056 18.375 46.2866 18.7949L41.0505 24.045C40.6316 24.465 40.6316 25.095 41.0506 25.515Z" fill="black"/>
<path d="M28.4843 38.22C27.6465 37.3799 26.3898 37.3799 25.5521 38.22C24.7144 39.06 24.7143 40.32 25.5521 41.1599C26.39 41.9999 27.6466 42 28.4843 41.1599C29.322 40.3199 29.322 39.06 28.4843 38.22Z" fill="black"/>
<path d="M30.6824 30.03C31.1013 29.61 31.1013 28.98 30.6824 28.5599C30.2636 28.1398 29.6352 28.14 29.2163 28.5599L22.514 35.2799C20.8385 36.9598 20.3149 40.6349 21.8857 43.3649L19.5817 45.675C19.1629 46.095 19.1629 46.725 19.5817 47.145C19.7912 47.3551 20.0006 47.46 20.3147 47.46C20.6289 47.46 20.8384 47.3551 21.1526 47.0401L24.0848 44.1001C24.5036 43.7851 24.5036 43.1551 24.1894 42.7352C22.6186 40.8452 23.0375 37.8001 24.0848 36.7502L30.6824 30.03Z" fill="black"/>
<path d="M32.1501 35.91L38.8524 29.19C39.2712 28.7701 39.2712 28.1401 38.8524 27.72C38.4335 27.3 37.8052 27.3 37.3862 27.72L29.9508 35.175C29.7413 35.3851 29.6367 35.595 29.6367 35.91C29.6367 36.225 29.7413 36.435 29.9508 36.645C30.5792 37.275 31.3122 38.3249 31.417 39.48C31.5217 40.5299 30.9981 41.58 29.9508 42.63L27.7516 44.835C27.3328 45.2549 27.3328 45.8849 27.7516 46.305C27.9611 46.515 28.1705 46.62 28.4847 46.62C28.7988 46.62 29.0083 46.515 29.2177 46.2L31.4169 43.995C32.883 42.525 33.616 40.95 33.5114 39.27C33.4068 38.115 32.9879 36.96 32.1501 35.91Z" fill="black"/>
<path d="M43.355 29.295L35.9196 36.75C35.5008 37.17 35.5008 37.8 35.9196 38.2201C36.1291 38.4301 36.3385 38.5351 36.6526 38.5351C36.8621 38.5351 37.1763 38.4301 37.3857 38.2201L44.821 30.765C45.2399 30.3451 45.2399 29.7151 44.821 29.295C44.4022 28.8749 43.7738 28.875 43.355 29.295Z" fill="black"/>
<path d="M48.4873 24.1501L47.0212 25.6201C46.6023 26.0401 46.6023 26.6701 47.0212 27.0901C47.2307 27.3002 47.44 27.4051 47.7542 27.4051C47.9637 27.4051 48.2778 27.3002 48.4872 27.0901L49.9534 25.6201C50.3722 25.2001 50.3722 24.5701 49.9534 24.1501C49.5346 23.73 48.9063 23.73 48.4873 24.1501Z" fill="black"/>
</g>
</g>
<defs>
<clipPath id="clip0">
<rect width="62.8338" height="63" fill="white" transform="matrix(-1 0 0 1 62.834 0)"/>
</clipPath>
<clipPath id="clip1">
<rect width="62.8338" height="63" fill="white"/>
</clipPath>
</defs>
</svg>
