<svg width="70" height="64" viewBox="0 0 70 64" fill="none" xmlns="http://www.w3.org/2000/svg">
<g clip-path="url(#clip0)">
<path d="M61.9412 31.8958L54.3456 21.2865C53.757 20.4643 52.7589 19.9733 51.6758 19.9733H18.1635C17.082 19.9733 16.0848 20.463 15.4959 21.2832L7.87675 31.8938C7.09814 32.978 7.21841 34.4094 8.16924 35.3746L32.5312 60.1134C33.1342 60.7256 33.9998 61.0769 34.9063 61.0769C34.9065 61.0769 34.9063 61.0769 34.9065 61.0769C35.8128 61.0769 36.6787 60.7258 37.2817 60.1135L61.6464 35.3733C62.5959 34.4092 62.7171 32.9792 61.9412 31.8958ZM50.1371 22.4399L43.7493 31.3743L37.3576 22.4399H50.1371ZM41.2431 32.4118H28.5695L34.9063 23.554L41.2431 32.4118ZM32.455 22.4401L26.081 31.35L19.7091 22.4401H32.455ZM17.1877 23.4558L23.5924 32.4118H10.7566L17.1877 23.4558ZM11.3326 34.8786H25.0564L32.3128 56.183L11.3326 34.8786ZM34.9063 55.4193L27.9099 34.8786H41.9027L34.9063 55.4193ZM37.4997 56.1838L44.7564 34.8787H58.4814L37.4997 56.1838ZM46.2554 32.4118L52.6543 23.462L59.0616 32.4118H46.2554Z" fill="#0A0A0A"/>
<path d="M4.13615 32.4119H1.36358C0.610611 32.4119 0 32.964 0 33.6452C0 34.3264 0.610611 34.8786 1.36358 34.8786H4.13615C4.88912 34.8786 5.49973 34.3264 5.49973 33.6452C5.49973 32.964 4.88912 32.4119 4.13615 32.4119Z" fill="#0A0A0A"/>
<path d="M68.4526 32.4119H65.68C64.927 32.4119 64.3164 32.964 64.3164 33.6452C64.3164 34.3264 64.927 34.8786 65.68 34.8786H68.4526C69.2055 34.8786 69.8161 34.3264 69.8161 33.6452C69.8161 32.964 69.2055 32.4119 68.4526 32.4119Z" fill="#0A0A0A"/>
<path d="M59.6073 11.3255C59.0747 10.8438 58.2115 10.8438 57.6788 11.3255L53.1494 15.4223C52.6169 15.9039 52.6169 16.6849 53.1494 17.1665C53.4158 17.4074 53.7647 17.5278 54.1137 17.5278C54.4628 17.5278 54.8116 17.4073 55.0779 17.1665L59.6073 13.0697C60.1398 12.588 60.1398 11.8072 59.6073 11.3255Z" fill="#0A0A0A"/>
<path d="M16.7224 15.4003L12.1931 11.3033C11.6608 10.8217 10.7976 10.8217 10.2646 11.3033C9.73211 11.785 9.73211 12.5659 10.2646 13.0476L14.794 17.1444C15.0603 17.3853 15.4092 17.5057 15.7582 17.5057C16.1071 17.5057 16.4561 17.3852 16.7224 17.1444C17.2549 16.6629 17.2549 15.8818 16.7224 15.4003Z" fill="#0A0A0A"/>
<path d="M34.9417 2.07117C34.1887 2.07117 33.5781 2.62334 33.5781 3.30453V11.3421C33.5781 12.0233 34.1886 12.5755 34.9417 12.5755C35.6947 12.5755 36.3053 12.0233 36.3053 11.3421V3.30453C36.3053 2.62347 35.6947 2.07117 34.9417 2.07117Z" fill="#0A0A0A"/>
<path d="M35.9056 14.6424C35.6521 14.413 35.3003 14.2811 34.9417 14.2811C34.5831 14.2811 34.2313 14.413 33.9777 14.6424C33.724 14.8718 33.5781 15.19 33.5781 15.5144C33.5781 15.84 33.7239 16.157 33.9777 16.3864C34.2313 16.617 34.5831 16.7478 34.9417 16.7478C35.3003 16.7478 35.6521 16.617 35.9056 16.3864C36.1606 16.157 36.3053 15.8388 36.3053 15.5144C36.3053 15.19 36.1606 14.872 35.9056 14.6424Z" fill="#0A0A0A"/>
</g>
<defs>
<clipPath id="clip0">
<rect width="69.8153" height="63.1481" fill="white"/>
</clipPath>
</defs>
</svg>
