<svg width="24" height="24" viewBox="0 0 24 24" fill="none" xmlns="http://www.w3.org/2000/svg">
<path d="M16.4696 4.54798V4.02189C16.4696 3.4245 15.9848 2.94043 15.3882 2.94043H13.6133C13.7611 2.67325 13.8452 2.34229 13.8452 2.00607C13.8444 0.900591 12.9453 0 11.8406 0C10.7359 0 9.83752 0.900591 9.83752 2.00607C9.83752 2.34229 9.92158 2.67325 10.0694 2.94043H8.61347C8.01608 2.94043 7.53201 3.4245 7.53201 4.02189V4.54798H5.11993C4.21408 4.54798 3.4801 5.28272 3.4801 6.18856V22.3587C3.4801 23.2645 4.21408 24 5.11993 24H18.8795C19.7853 24 20.52 23.2653 20.52 22.3587V6.18856C20.52 5.28272 19.7853 4.54798 18.8795 4.54798H16.4696ZM10.6473 2.00682C10.6473 1.34788 11.1824 0.810532 11.8398 0.810532C12.4988 0.810532 13.0339 1.34788 13.0339 2.00682C13.0339 2.38356 12.8583 2.70703 12.5836 2.94118H11.0969C10.8229 2.70628 10.6473 2.38356 10.6473 2.00682ZM18.8795 21.383C18.8795 21.9399 18.4277 22.3917 17.8708 22.3917H6.12859C5.57173 22.3917 5.11993 21.9399 5.11993 21.383V7.19722C5.11993 6.63961 5.57173 6.18856 6.12859 6.18856H7.53051C7.53051 6.6321 7.89 6.99234 8.33354 6.99234H15.6651C16.1094 6.99234 16.4681 6.63285 16.4681 6.18856H17.8708C18.4269 6.18856 18.8795 6.64036 18.8795 7.19722V21.383Z" fill="white"/>
<path d="M8.14442 11.2551C8.93153 11.2551 9.56961 10.617 9.56961 9.82994C9.56961 9.04283 8.93153 8.40475 8.14442 8.40475C7.35732 8.40475 6.71924 9.04283 6.71924 9.82994C6.71924 10.617 7.35732 11.2551 8.14442 11.2551Z" fill="white"/>
<path d="M16.2528 9.03442H11.3926C10.9453 9.03442 10.582 9.39091 10.582 9.8382C10.582 10.2855 10.9445 10.642 11.3926 10.642H16.2543C16.7015 10.642 17.0633 10.2855 17.0633 9.8382C17.0633 9.39091 16.7008 9.03442 16.2528 9.03442Z" fill="white"/>
<path d="M8.14442 15.298C8.93153 15.298 9.56961 14.66 9.56961 13.8728C9.56961 13.0857 8.93153 12.4477 8.14442 12.4477C7.35732 12.4477 6.71924 13.0857 6.71924 13.8728C6.71924 14.66 7.35732 15.298 8.14442 15.298Z" fill="white"/>
<path d="M16.2528 13.0518H11.3926C10.9453 13.0518 10.582 13.4256 10.582 13.8729C10.582 14.3202 10.9445 14.6924 11.3926 14.6924H16.2543C16.7015 14.6924 17.0633 14.3202 17.0633 13.8729C17.0633 13.4256 16.7008 13.0518 16.2528 13.0518Z" fill="white"/>
<path d="M8.1444 19.6179C8.9311 19.6179 9.56884 18.9801 9.56884 18.1934C9.56884 17.4068 8.9311 16.769 8.1444 16.769C7.35771 16.769 6.71997 17.4068 6.71997 18.1934C6.71997 18.9801 7.35771 19.6179 8.1444 19.6179Z" fill="white"/>
<path d="M16.2528 17.3701H11.3926C10.9453 17.3701 10.582 17.7439 10.582 18.1912C10.582 18.6385 10.9445 19.0107 11.3926 19.0107H16.2543C16.7015 19.0107 17.0633 18.6377 17.0633 18.1912C17.0633 17.7439 16.7008 17.3701 16.2528 17.3701Z" fill="white"/>
</svg>
