<svg width="15" height="15" viewBox="0 0 15 15" fill="none" xmlns="http://www.w3.org/2000/svg">
<path d="M9.19921 10.4129V12.1791C9.19921 12.553 9.09039 12.74 8.87276 12.74C8.74441 12.74 8.61885 12.6786 8.49609 12.5558V10.0363C8.61885 9.9135 8.74441 9.85212 8.87276 9.85212C9.09039 9.85212 9.19921 10.0391 9.19921 10.4129ZM12.0285 10.4213V10.8064H11.2751V10.4213C11.2751 10.0419 11.4007 9.85212 11.6518 9.85212C11.9029 9.85212 12.0285 10.0419 12.0285 10.4213ZM3.94251 8.59654H4.83816V7.80971H2.22655V8.59654H3.10546V13.3594H3.94251V8.59654ZM6.35323 13.3594H7.09821V9.22433H6.35323V12.3884C6.18582 12.6228 6.02678 12.74 5.87611 12.74C5.77566 12.74 5.71707 12.6814 5.70033 12.5642C5.69475 12.5474 5.69196 12.4498 5.69196 12.2712V9.22433H4.94698V12.4972C4.94698 12.7706 4.9693 12.9743 5.01394 13.1083C5.08091 13.3147 5.24274 13.418 5.49943 13.418C5.76729 13.418 6.05189 13.2478 6.35323 12.9074V13.3594ZM9.94419 12.1205V10.4715C9.94419 10.0642 9.91908 9.78795 9.86885 9.64286C9.77399 9.33036 9.57588 9.17411 9.27455 9.17411C8.99553 9.17411 8.73604 9.32478 8.49609 9.62612V7.80971H7.75111V13.3594H8.49609V12.9576C8.7472 13.2645 9.00669 13.418 9.27455 13.418C9.57588 13.418 9.77399 13.2645 9.86885 12.9576C9.91908 12.8069 9.94419 12.5279 9.94419 12.1205ZM12.7734 12.0368V11.928H12.0117C12.0117 12.2126 12.0061 12.3828 11.995 12.4386C11.9559 12.6395 11.8443 12.74 11.6601 12.74C11.4035 12.74 11.2751 12.5474 11.2751 12.1624V11.4342H12.7734V10.572C12.7734 10.1311 12.6981 9.80748 12.5474 9.601C12.3298 9.31641 12.034 9.17411 11.6601 9.17411C11.2807 9.17411 10.9821 9.31641 10.7645 9.601C10.6083 9.80748 10.5301 10.1311 10.5301 10.572V12.0201C10.5301 12.4609 10.611 12.7846 10.7729 12.9911C10.9905 13.2757 11.2918 13.418 11.6769 13.418C12.0787 13.418 12.38 13.2701 12.5809 12.9743C12.6814 12.8237 12.7399 12.673 12.7567 12.5223C12.7678 12.4721 12.7734 12.3103 12.7734 12.0368ZM7.68414 4.39453V2.63672C7.68414 2.25167 7.56417 2.05915 7.32421 2.05915C7.08426 2.05915 6.96428 2.25167 6.96428 2.63672V4.39453C6.96428 4.78516 7.08426 4.98047 7.32421 4.98047C7.56417 4.98047 7.68414 4.78516 7.68414 4.39453ZM13.7026 10.6808C13.7026 11.9866 13.63 12.9632 13.4849 13.6105C13.4068 13.9397 13.245 14.216 12.9994 14.4392C12.7539 14.6624 12.4693 14.7907 12.1456 14.8242C11.1189 14.9414 9.5703 15 7.49999 15C5.42968 15 3.88113 14.9414 2.85434 14.8242C2.53068 14.7907 2.24469 14.6624 1.99636 14.4392C1.74804 14.216 1.5876 13.9397 1.51506 13.6105C1.36997 12.9855 1.29742 12.0089 1.29742 10.6808C1.29742 9.375 1.36997 8.39844 1.51506 7.75112C1.59318 7.42188 1.75501 7.14565 2.00055 6.92243C2.24609 6.69922 2.53347 6.56808 2.86271 6.52902C3.88392 6.41741 5.42968 6.36161 7.49999 6.36161C9.5703 6.36161 11.1189 6.41741 12.1456 6.52902C12.4693 6.56808 12.7553 6.69922 13.0036 6.92243C13.2519 7.14565 13.4124 7.42188 13.4849 7.75112C13.63 8.37612 13.7026 9.35268 13.7026 10.6808ZM5.34876 0H6.20256L5.18972 3.33984V5.60826H4.35267V3.33984C4.27455 2.9269 4.10434 2.33538 3.84207 1.56529C3.63559 0.990513 3.45423 0.46875 3.29798 0H4.18526L4.77957 2.20145L5.34876 0ZM8.44586 2.78739V4.25223C8.44586 4.70424 8.36774 5.03348 8.21149 5.23996C8.00501 5.52455 7.70926 5.66685 7.32421 5.66685C6.95033 5.66685 6.65736 5.52455 6.4453 5.23996C6.28905 5.0279 6.21093 4.69866 6.21093 4.25223V2.78739C6.21093 2.34096 6.28905 2.01451 6.4453 1.80804C6.65736 1.52344 6.95033 1.38114 7.32421 1.38114C7.70926 1.38114 8.00501 1.52344 8.21149 1.80804C8.36774 2.01451 8.44586 2.34096 8.44586 2.78739ZM11.25 1.43136V5.60826H10.4883V5.14788C10.1925 5.49386 9.90513 5.66685 9.62611 5.66685C9.36941 5.66685 9.20479 5.56362 9.13225 5.35714C9.0876 5.22321 9.06528 5.01395 9.06528 4.72935V1.43136H9.827V4.50335C9.827 4.6875 9.82979 4.78516 9.83537 4.79632C9.85211 4.91908 9.91071 4.98047 10.0112 4.98047C10.1618 4.98047 10.3209 4.86049 10.4883 4.62054V1.43136H11.25Z" fill="white"/>
</svg>
