<svg width="15" height="15" viewBox="0 0 15 15" fill="none" xmlns="http://www.w3.org/2000/svg">
<path d="M7.49865 0C4.45392 0 1.97656 2.47736 1.97656 5.5224C1.97656 6.31666 2.13913 7.07501 2.45951 7.77655C3.84018 10.7978 6.48732 13.9876 7.26593 14.8932C7.32427 14.9609 7.40931 14.9998 7.49881 14.9998C7.5883 14.9998 7.67335 14.9609 7.73168 14.8932C8.50998 13.9878 11.1571 10.7981 12.5383 7.77655C12.8588 7.07501 13.0212 6.31666 13.0212 5.5224C13.0209 2.47736 10.5435 0 7.49865 0ZM7.49865 8.39075C5.91703 8.39075 4.63015 7.10387 4.63015 5.52224C4.63015 3.94047 5.91703 2.65359 7.49865 2.65359C9.08028 2.65359 10.3672 3.94047 10.3672 5.52224C10.3673 7.10387 9.08043 8.39075 7.49865 8.39075Z" fill="black"/>
</svg>
