<svg width="10" height="20" viewBox="0 0 10 20" fill="none" xmlns="http://www.w3.org/2000/svg">
<path d="M5.46392e-08 11.875C6.94371e-08 11.7057 0.0618459 11.5592 0.185547 11.4355L4.56055 7.06055C4.68425 6.93685 4.83073 6.875 5 6.875C5.16927 6.875 5.31575 6.93685 5.43945 7.06055L9.81445 11.4355C9.93815 11.5592 10 11.7057 10 11.875C10 12.0443 9.93815 12.1908 9.81445 12.3145C9.69075 12.4382 9.54427 12.5 9.375 12.5L0.625 12.5C0.455732 12.5 0.309248 12.4382 0.185547 12.3145C0.0618458 12.1908 3.98414e-08 12.0443 5.46392e-08 11.875Z" fill="#8D8D8D"/>
</svg>
