<svg width="50" height="50" viewBox="0 0 50 50" fill="none" xmlns="http://www.w3.org/2000/svg">
<path d="M38.2812 20.9484V12.4961C38.2812 12.3938 38.2609 12.2922 38.2211 12.1969C38.1844 12.1086 38.1305 12.0305 38.0656 11.9625C38.0602 11.9563 38.0586 11.9484 38.0523 11.943C38.0422 11.9328 38.0289 11.9297 38.0188 11.9211C37.9531 11.8617 37.8805 11.8094 37.7984 11.775C37.7141 11.7398 37.6242 11.7258 37.5344 11.7219C37.5219 11.7211 37.5125 11.7148 37.5 11.7148H29.0516C27.8273 0.0085935 25.7062 0 25 0C24.568 0 24.2016 0.346875 24.2016 0.778906C24.2016 1.21016 24.5344 1.55703 24.9656 1.55703C25.3641 1.7125 26.6461 3.93984 27.4789 11.7148H22.5234C22.7719 9.38281 23.0867 7.32422 23.4523 5.65234L23.4891 5.74766C23.6086 6.05937 23.9047 6.25 24.2188 6.25C24.3117 6.25 24.4062 6.23359 24.4977 6.19844C24.9008 6.04453 25.1016 5.59297 24.9477 5.18984L24.0516 2.84609C24.0469 2.83359 24.0359 2.82656 24.032 2.81406C24.0187 2.78516 24.0023 2.75938 23.9852 2.73203C23.975 2.71484 23.9734 2.69375 23.9617 2.67734C23.95 2.66094 23.9312 2.65156 23.918 2.63516C23.8984 2.61172 23.8813 2.58672 23.8594 2.56562C23.8367 2.54453 23.8102 2.52812 23.7852 2.50937C23.7516 2.48438 23.7188 2.46172 23.682 2.44219C23.6562 2.42812 23.632 2.41563 23.6039 2.40469C23.5914 2.4 23.5836 2.38984 23.5711 2.38594C23.5531 2.37969 23.5344 2.38359 23.5156 2.37891C23.4758 2.36797 23.4383 2.36172 23.3977 2.35703C23.368 2.35469 23.3398 2.35156 23.3102 2.35234C23.2758 2.35234 23.2445 2.35625 23.2117 2.36094C23.1734 2.36641 23.1375 2.37656 23.1 2.3875C23.0813 2.39297 23.0617 2.38984 23.043 2.39688C23.032 2.40078 23.0258 2.41094 23.0148 2.41484C22.982 2.42891 22.9539 2.44609 22.9234 2.46406C22.907 2.47422 22.8891 2.47578 22.8742 2.48594L20.6453 4.04844C20.2922 4.29531 20.2062 4.78281 20.4547 5.13672C20.6062 5.35313 20.8484 5.46875 21.0945 5.46875C21.2492 5.46875 21.4055 5.42266 21.5422 5.32656L21.9945 5.00938C21.5727 6.84141 21.218 9.11563 20.9445 11.7148H19.5312C19.5258 11.7148 19.5211 11.718 19.5148 11.718C19.4188 11.7203 19.3227 11.7375 19.232 11.775C19.1438 11.8117 19.0648 11.8664 18.9961 11.9313C18.9906 11.9367 18.9828 11.9383 18.9781 11.9438L11.9453 18.9859C11.7891 19.143 11.7156 19.35 11.7203 19.5555V20.9492C0.0085935 22.1711 0 24.293 0 25C0 27.2664 5.73906 28.4359 11.7203 29.0406V37.5039C11.7203 37.9359 12.0695 38.2852 12.5016 38.2852H20.9602C21.5648 44.2648 22.7344 50 25 50C25.7062 50 27.8273 49.9914 29.0516 38.2852H30.468C30.5695 38.2852 30.6711 38.2648 30.7664 38.225C30.8625 38.1852 30.9492 38.1281 31.0211 38.0555L38.0547 31.0219C38.0914 30.9852 38.1086 30.9398 38.1367 30.8984C38.1648 30.8555 38.2008 30.8188 38.2203 30.7711C38.2625 30.6727 38.282 30.5672 38.2812 30.4617V29.0555C40.882 28.782 43.1578 28.4273 44.9898 28.0047L44.6734 28.457C44.4258 28.8102 44.5109 29.2977 44.8641 29.5453C45.0008 29.6414 45.157 29.6875 45.3117 29.6875C45.5578 29.6875 45.8 29.5719 45.9516 29.3547L47.5141 27.1258C47.5258 27.1094 47.5266 27.0914 47.5359 27.075C47.5523 27.0477 47.5703 27.0219 47.5836 26.9922C47.5898 26.9797 47.5992 26.9703 47.6039 26.957C47.6117 26.9383 47.6078 26.918 47.6141 26.8984C47.625 26.8617 47.6336 26.8266 47.6391 26.7883C47.6445 26.7563 47.6477 26.7258 47.6484 26.6922C47.6492 26.6602 47.6469 26.6297 47.643 26.5977C47.6391 26.5586 47.6313 26.5227 47.6219 26.4844C47.6172 26.4656 47.6211 26.4469 47.6148 26.4281C47.6109 26.4156 47.6008 26.4086 47.5969 26.3969C47.5859 26.3687 47.5719 26.343 47.5578 26.3156C47.5383 26.2789 47.5148 26.2461 47.4898 26.2125C47.4719 26.1891 47.4562 26.1633 47.4359 26.1414C47.4148 26.1187 47.3891 26.1008 47.3648 26.0812C47.3484 26.068 47.3406 26.05 47.3234 26.0375C47.3063 26.025 47.2844 26.0227 47.2664 26.0125C47.2398 25.9969 47.2156 25.9805 47.1867 25.968C47.1742 25.9625 47.1664 25.9516 47.1539 25.9477L44.8102 25.0516C44.4055 24.8977 43.9555 25.0984 43.8016 25.5016C43.6477 25.9047 43.8492 26.3562 44.2516 26.5102L44.3477 26.5469C42.6742 26.9141 40.6148 27.2273 38.2805 27.4758V22.5211C46.0578 23.3523 48.2867 24.6344 48.4367 24.9992C48.4367 25.4312 48.7859 25.7805 49.218 25.7805C49.65 25.7805 49.9992 25.4312 49.9992 24.9992C50 24.2938 49.9914 22.1719 38.2812 20.9484ZM35.6148 13.2773L30.143 18.757H22.0109C22.0938 16.8367 22.2156 14.9977 22.3703 13.2773H35.6148ZM29.6859 36.7227H22.3641C22.1734 34.6289 22.0266 32.2648 21.9461 29.643C23.6406 29.6844 24.7938 29.6875 25 29.6875C26.5977 29.6875 28.1625 29.6609 29.6859 29.6133V36.7227ZM25 28.125C23.9336 28.125 22.9047 28.1133 21.907 28.0938C21.8867 27.0953 21.875 26.0664 21.875 25C21.875 23.4109 21.9023 21.8461 21.9516 20.3195H29.6859V28.0492C28.1578 28.0977 26.5914 28.125 25 28.125ZM13.2828 20.3195H20.3867C20.3391 21.8414 20.3125 23.4039 20.3125 25C20.3125 25.2062 20.3156 26.3594 20.357 28.0539C17.7375 27.9727 15.375 27.8273 13.2828 27.6391V20.3195ZM20.4437 18.757H14.3836L19.8555 13.2773H20.7937C20.6422 14.9969 20.525 16.8367 20.4437 18.757ZM1.55703 25.0352C1.7125 24.6367 3.94141 23.3539 11.7203 22.5219V27.4844C5.3375 26.7992 1.84141 25.7187 1.55703 25.0352ZM13.2828 36.7227V29.1875C15.8445 29.4055 18.3578 29.5281 20.4023 29.5969C20.4719 31.643 20.5938 34.1578 20.8125 36.7219H13.2828V36.7227ZM25.0352 48.443C24.3062 48.1586 23.2109 44.6641 22.5195 38.2852H27.4781C26.6453 46.0602 25.3656 48.2875 25.0352 48.443ZM36.7188 30.1477L31.2484 35.618V29.5563C33.1648 29.475 35.0016 29.3586 36.7188 29.207V30.1477ZM31.2484 27.9891V19.8625L36.7188 14.3844V27.6305C35.0016 27.7844 33.1648 27.9055 31.2484 27.9891Z" fill="#666666"/>
</svg>
