<svg width="10" height="10" viewBox="0 0 10 10" fill="none" xmlns="http://www.w3.org/2000/svg">
<path d="M5.96323 5.00211L2.22225 1.26098C2.11925 1.15821 2.06258 1.02081 2.06258 0.874309C2.06258 0.727724 2.11925 0.590406 2.22225 0.48748L2.55006 0.159837C2.6529 0.056748 2.79038 0 2.93689 0C3.08339 0 3.22071 0.056748 3.32364 0.159837L7.77786 4.61398C7.8812 4.71724 7.93778 4.8552 7.93738 5.00187C7.93778 5.14919 7.88128 5.28699 7.77786 5.39033L3.32778 9.84016C3.22486 9.94325 3.08754 10 2.94095 10C2.79445 10 2.65713 9.94325 2.55412 9.84016L2.2264 9.51252C2.01315 9.29927 2.01315 8.95211 2.2264 8.73894L5.96323 5.00211Z" fill="#BDBDBD"/>
</svg>
