<svg width="24" height="24" viewBox="0 0 24 24" fill="none" xmlns="http://www.w3.org/2000/svg">
<path d="M14.7188 16.6607V19.4866C14.7188 20.0848 14.5447 20.3839 14.1965 20.3839C13.9911 20.3839 13.7902 20.2857 13.5938 20.0893V16.058C13.7902 15.8616 13.9911 15.7634 14.1965 15.7634C14.5447 15.7634 14.7188 16.0625 14.7188 16.6607ZM19.2456 16.6741V17.2902H18.0402V16.6741C18.0402 16.067 18.2411 15.7634 18.6429 15.7634C19.0447 15.7634 19.2456 16.067 19.2456 16.6741ZM6.30807 13.7545H7.74111V12.4955H3.56253V13.7545H4.96878V21.375H6.30807V13.7545ZM10.1652 21.375H11.3572V14.7589H10.1652V19.8214C9.89736 20.1964 9.64289 20.3839 9.40182 20.3839C9.24111 20.3839 9.14736 20.2902 9.12057 20.1027C9.11164 20.0759 9.10718 19.9196 9.10718 19.6339V14.7589H7.91521V19.9955C7.91521 20.433 7.95093 20.7589 8.02236 20.9732C8.1295 21.3036 8.38843 21.4688 8.79914 21.4688C9.22771 21.4688 9.68307 21.1964 10.1652 20.6518V21.375ZM15.9107 19.3929V16.7545C15.9107 16.1027 15.8706 15.6607 15.7902 15.4286C15.6384 14.9286 15.3215 14.6786 14.8393 14.6786C14.3929 14.6786 13.9777 14.9196 13.5938 15.4018V12.4955H12.4018V21.375H13.5938V20.7321C13.9956 21.2232 14.4107 21.4688 14.8393 21.4688C15.3215 21.4688 15.6384 21.2232 15.7902 20.7321C15.8706 20.4911 15.9107 20.0446 15.9107 19.3929ZM20.4375 19.2589V19.0848H19.2188C19.2188 19.5402 19.2099 19.8125 19.192 19.9018C19.1295 20.2232 18.9509 20.3839 18.6563 20.3839C18.2456 20.3839 18.0402 20.0759 18.0402 19.4598V18.2946H20.4375V16.9152C20.4375 16.2098 20.317 15.692 20.0759 15.3616C19.7277 14.9062 19.2545 14.6786 18.6563 14.6786C18.0491 14.6786 17.5715 14.9062 17.2232 15.3616C16.9732 15.692 16.8482 16.2098 16.8482 16.9152V19.2321C16.8482 19.9375 16.9777 20.4554 17.2366 20.7857C17.5849 21.2411 18.067 21.4688 18.6831 21.4688C19.3259 21.4688 19.8081 21.2321 20.1295 20.7589C20.2902 20.5179 20.384 20.2768 20.4107 20.0357C20.4286 19.9554 20.4375 19.6964 20.4375 19.2589ZM12.2947 7.03125V4.21875C12.2947 3.60268 12.1027 3.29464 11.7188 3.29464C11.3349 3.29464 11.1429 3.60268 11.1429 4.21875V7.03125C11.1429 7.65625 11.3349 7.96875 11.7188 7.96875C12.1027 7.96875 12.2947 7.65625 12.2947 7.03125ZM21.9241 17.0893C21.9241 19.1786 21.8081 20.7411 21.5759 21.7768C21.4509 22.3036 21.192 22.7455 20.7991 23.1027C20.4063 23.4598 19.9509 23.6652 19.4331 23.7188C17.7902 23.9062 15.3125 24 12 24C8.68753 24 6.20986 23.9062 4.567 23.7188C4.04914 23.6652 3.59155 23.4598 3.19423 23.1027C2.79691 22.7455 2.54021 22.3036 2.42414 21.7768C2.192 20.7768 2.07593 19.2143 2.07593 17.0893C2.07593 15 2.192 13.4375 2.42414 12.4018C2.54914 11.875 2.80807 11.433 3.20093 11.0759C3.59378 10.7188 4.05361 10.5089 4.58039 10.4464C6.21432 10.2679 8.68753 10.1786 12 10.1786C15.3125 10.1786 17.7902 10.2679 19.4331 10.4464C19.9509 10.5089 20.4085 10.7188 20.8058 11.0759C21.2032 11.433 21.4599 11.875 21.5759 12.4018C21.8081 13.4018 21.9241 14.9643 21.9241 17.0893ZM8.55807 0H9.92414L8.30361 5.34375V8.97321H6.96432V5.34375C6.83932 4.68304 6.567 3.73661 6.14736 2.50446C5.817 1.58482 5.52682 0.75 5.27682 0H6.69646L7.64736 3.52232L8.55807 0ZM13.5134 4.45982V6.80357C13.5134 7.52679 13.3884 8.05357 13.1384 8.38393C12.8081 8.83929 12.3349 9.06696 11.7188 9.06696C11.1206 9.06696 10.6518 8.83929 10.3125 8.38393C10.0625 8.04464 9.93753 7.51786 9.93753 6.80357V4.45982C9.93753 3.74554 10.0625 3.22321 10.3125 2.89286C10.6518 2.4375 11.1206 2.20982 11.7188 2.20982C12.3349 2.20982 12.8081 2.4375 13.1384 2.89286C13.3884 3.22321 13.5134 3.74554 13.5134 4.45982ZM18 2.29018V8.97321H16.7813V8.23661C16.3081 8.79018 15.8482 9.06696 15.4018 9.06696C14.9911 9.06696 14.7277 8.90179 14.6116 8.57143C14.5402 8.35714 14.5045 8.02232 14.5045 7.56696V2.29018H15.7232V7.20536C15.7232 7.5 15.7277 7.65625 15.7366 7.67411C15.7634 7.87054 15.8572 7.96875 16.0179 7.96875C16.259 7.96875 16.5134 7.77679 16.7813 7.39286V2.29018H18Z" fill="white"/>
</svg>
