<svg width="70" height="70" viewBox="0 0 70 70" fill="none" xmlns="http://www.w3.org/2000/svg">
<path d="M62.1051 35.3566L54.4895 23.5962C53.8993 22.6847 52.8985 22.1404 51.8125 22.1404H18.2116C17.1272 22.1404 16.1274 22.6834 15.5369 23.5925L7.89763 35.3544C7.11697 36.5562 7.23755 38.143 8.19089 39.2129L32.6173 66.636C33.2219 67.3146 34.0898 67.704 34.9987 67.704C34.9988 67.704 34.9987 67.704 34.9988 67.704C35.9076 67.704 36.7758 67.3148 37.3803 66.6361L61.8095 39.2114C62.7615 38.1427 62.883 36.5576 62.1051 35.3566ZM50.2698 24.8747L43.8651 34.7786L37.4565 24.8747H50.2698ZM41.3523 35.9287H28.6451L34.9987 26.1097L41.3523 35.9287ZM32.5409 24.875L26.15 34.7517L19.7613 24.875H32.5409ZM17.2332 26.0008L23.6549 35.9287H10.7851L17.2332 26.0008ZM11.3626 38.663H25.1227L32.3983 62.2791L11.3626 38.663ZM34.9987 61.4326L27.9838 38.663H42.0136L34.9987 61.4326ZM37.599 62.28L44.8749 38.6632H58.6361L37.599 62.28ZM46.3778 35.9287L52.7936 26.0077L59.2179 35.9287H46.3778Z" fill="#0A0A0A"/>
<path d="M4.14709 35.9287H1.36719C0.612227 35.9287 0 36.5408 0 37.2959C0 38.051 0.612227 38.6631 1.36719 38.6631H4.14709C4.90205 38.6631 5.51428 38.051 5.51428 37.2959C5.51428 36.5408 4.90205 35.9287 4.14709 35.9287Z" fill="#0A0A0A"/>
<path d="M68.6324 35.9287H65.8525C65.0976 35.9287 64.4854 36.5408 64.4854 37.2959C64.4854 38.051 65.0976 38.6631 65.8525 38.6631H68.6324C69.3874 38.6631 69.9996 38.051 69.9996 37.2959C69.9996 36.5408 69.3874 35.9287 68.6324 35.9287Z" fill="#0A0A0A"/>
<path d="M59.7651 12.5543C59.2311 12.0204 58.3656 12.0204 57.8315 12.5543L53.2901 17.0957C52.7562 17.6296 52.7562 18.4953 53.2901 19.0291C53.5572 19.2962 53.9071 19.4296 54.2569 19.4296C54.6069 19.4296 54.9567 19.296 55.2237 19.0291L59.7651 14.4878C60.299 13.9539 60.299 13.0883 59.7651 12.5543Z" fill="#0A0A0A"/>
<path d="M16.7669 17.0713L12.2256 12.5298C11.6919 11.9959 10.8265 11.9959 10.292 12.5298C9.75813 13.0637 9.75813 13.9294 10.292 14.4633L14.8334 19.0047C15.1004 19.2717 15.4503 19.4051 15.8001 19.4051C16.15 19.4051 16.4999 19.2716 16.7669 19.0047C17.3008 18.4709 17.3008 17.6051 16.7669 17.0713Z" fill="#0A0A0A"/>
<path d="M35.0342 2.2959C34.2792 2.2959 33.667 2.90799 33.667 3.66309V12.5728C33.667 13.3279 34.2791 13.94 35.0342 13.94C35.7891 13.94 36.4014 13.3279 36.4014 12.5728V3.66309C36.4014 2.90813 35.7891 2.2959 35.0342 2.2959Z" fill="#0A0A0A"/>
<path d="M36.0006 16.2312C35.7465 15.9769 35.3938 15.8306 35.0342 15.8306C34.6746 15.8306 34.3219 15.9769 34.0676 16.2312C33.8133 16.4855 33.667 16.8382 33.667 17.1978C33.667 17.5587 33.8131 17.9101 34.0676 18.1644C34.3219 18.4201 34.6746 18.565 35.0342 18.565C35.3938 18.565 35.7465 18.4201 36.0006 18.1644C36.2563 17.9101 36.4014 17.5574 36.4014 17.1978C36.4014 16.8382 36.2563 16.4856 36.0006 16.2312Z" fill="#0A0A0A"/>
</svg>
