<svg width="16" height="16" viewBox="0 0 16 16" fill="none" xmlns="http://www.w3.org/2000/svg">
<g clip-path="url(#clip0)">
<path d="M0.581291 0.768752L3.83129 0.0187522C4.18442 -0.0624978 4.54692 0.121877 4.69067 0.453127L6.19067 3.95313C6.32192 4.25938 6.23442 4.61875 5.97504 4.82813L4.08129 6.37813C5.20629 8.775 7.17192 10.7688 9.61879 11.9156L11.1688 10.0219C11.3813 9.7625 11.7375 9.675 12.0438 9.80625L15.5438 11.3063C15.8782 11.4531 16.0625 11.8156 15.9813 12.1688L15.2313 15.4188C15.1532 15.7563 14.8532 16 14.5 16C6.49692 16 4.00543e-05 9.51563 4.00543e-05 1.5C4.00543e-05 1.15 0.240666 0.846877 0.581291 0.768752Z" fill="white"/>
</g>
<defs>
<clipPath id="clip0">
<rect width="16" height="16" fill="white" transform="matrix(-1 0 0 1 16 0)"/>
</clipPath>
</defs>
</svg>
