<svg width="25" height="25" viewBox="0 0 25 25" fill="none" xmlns="http://www.w3.org/2000/svg">
<path d="M10.0916 12.5053L19.4441 3.15244C19.7016 2.89553 19.8432 2.55203 19.8432 2.18577C19.8432 1.81931 19.7016 1.47602 19.4441 1.2187L18.6245 0.399594C18.3674 0.14187 18.0237 0 17.6575 0C17.2912 0 16.9479 0.14187 16.6906 0.399594L5.55504 11.535C5.2967 11.7931 5.15524 12.138 5.15626 12.5047C5.15524 12.873 5.2965 13.2175 5.55504 13.4758L16.6802 24.6004C16.9376 24.8581 17.2808 25 17.6473 25C18.0136 25 18.3569 24.8581 18.6144 24.6004L19.4337 23.7813C19.9668 23.2482 19.9668 22.3803 19.4337 21.8474L10.0916 12.5053Z" fill="#8D8D8D"/>
</svg>
