<svg width="162" height="40" viewBox="0 0 162 40" fill="none" xmlns="http://www.w3.org/2000/svg">
<path d="M133.029 0.257682C134.836 0.257682 135.708 2.51656 136.367 3.82716C136.918 4.92415 137.644 6.41279 138.543 8.29227L138.631 8.41595L138.824 8.2425C139.709 7.1864 140.548 5.91072 141.23 4.69299C141.394 4.26212 141.515 3.75437 141.345 3.30538C141.001 2.39626 139.678 2.28103 138.881 1.83976C138.601 1.68465 138.293 1.43635 138.293 1.08559C138.273 0.393188 138.801 0.257682 139.156 0.257682H145.423C146.105 0.257682 147.015 0.504874 147.094 1.30973C147.138 1.84508 146.609 2.70606 146.37 3.12661C144.685 6.09316 142.581 9.1704 140.21 11.6545C141.912 15.0694 143.598 18.4682 145.473 21.7392C146.174 22.9631 146.74 23.4023 147.989 23.9798C148.403 24.1875 149.555 24.644 149.554 25.1161C149.593 25.9034 149.055 25.9291 148.557 25.9291H143.205C142.439 25.9291 141.7 25.6261 141.256 24.9845C139.302 21.9031 137.758 18.5805 136.055 15.3552C135.29 16.2323 134.424 17.2713 133.605 18.3987C132.411 20.1436 131.815 21.4036 131.815 22.1785C131.815 23.2072 132.803 23.5173 133.667 23.8639C134.169 24.021 135.512 24.3956 135.512 25.1012C135.512 26.034 134.128 25.9291 133.557 25.9291H127.782C125.364 25.9291 125.78 23.8186 126.561 22.3862C128.623 18.6056 131.694 15.1747 134.454 11.926C134.294 11.5485 134.064 11.0586 133.766 10.4567C133.438 9.79505 133.019 8.98411 132.51 8.02447L132.51 8.02437L131.069 5.45829L131.068 5.45652C129.942 3.4168 128.313 2.94069 126.392 1.83903C125.968 1.59551 125.745 1.38868 125.724 1.21899C125.68 0.547304 126.09 0.269808 126.787 0.246155L133.029 0.257682Z" fill="#D5B36A"/>
<path d="M122.527 0.257751C123.265 0.257751 123.602 0.785746 123.602 1.4731H123.601L123.812 6.32255L123.813 6.33234C123.842 6.78196 123.799 7.52882 123.254 7.54579C122.918 7.54301 122.793 7.19783 122.66 6.92555L122.65 6.91125C121.176 4.54125 120.254 3.32206 117.034 3.32206H115.52C114.48 3.32206 113.954 3.46672 113.954 4.61285L113.953 4.61909C113.875 7.28293 113.778 9.93714 113.778 12.6004C113.778 12.6386 113.786 12.6668 113.804 12.6806L113.805 12.6816C113.839 12.708 113.903 12.7235 114.002 12.7242H114.003C114.04 12.7232 114.077 12.7153 114.108 12.7014L114.108 12.7019C114.12 12.6967 114.127 12.6951 114.127 12.6944L114.137 12.6791C115.702 10.4741 118.422 10.3628 120.883 10.0844L120.908 10.0825C121.901 10.0825 121.806 11.1563 121.659 11.83C121.589 12.1525 121.482 12.5814 121.34 13.1164C121.164 13.7484 120.736 14.4493 119.957 14.379H115.239C114.363 14.379 113.954 14.478 113.954 15.4233V20.3356C113.954 22.2224 115.644 22.6184 117.14 22.6184L119.518 22.5139C121.916 22.2725 122.84 21.2329 124.132 19.2371C124.738 18.1047 126.417 17.5207 126.101 19.0797L125.006 24.617C124.83 25.2842 124.502 25.9292 123.443 25.9292H110.45C109.32 25.9292 108.742 25.2602 108.742 24.3617C108.742 17.7889 108.807 11.2154 108.848 4.64228H108.847C108.847 3.53457 108.044 2.31832 106.969 1.97334L106.969 1.97387C106.432 1.81297 105.813 1.76146 105.75 1.07099C105.697 0.465889 106.317 0.257751 106.788 0.257751H122.527Z" fill="#D5B36A"/>
<path d="M74.2815 11.5063L76.8131 6.48913C77.3969 4.95619 77.5443 2.62217 75.5248 2.11753L75.525 2.11689C75.0017 1.99101 74.4707 1.69424 74.4707 1.08566C74.4707 0.415909 75.145 0.257751 75.6859 0.257751H79.8759C82.2555 0.257751 82.3296 3.02739 81.5247 4.63871L75.6771 15.7003C75.4272 16.197 75.2995 16.9334 75.3164 17.4953C75.3164 19.4406 75.1264 21.6576 75.8413 23.5409C76.1826 24.4427 77.0121 24.8261 77.8984 25.0362C78.2523 25.1312 79.214 25.1932 79.2071 25.5307C79.199 25.9276 78.7239 25.9403 78.4653 25.9278C75.8415 25.8 73.1235 25.5451 70.6969 24.9531C70.3665 24.8725 70.1751 24.7688 70.1751 24.4275V16.0896C70.1611 15.6675 69.8951 15.1656 69.6096 14.6896L63.7594 3.90625C63.2826 3.00227 61.6927 2.51269 60.961 1.95406C60.5781 1.6616 60.3864 1.39546 60.3864 1.15599C60.3864 0.628992 60.7047 0.262362 61.2141 0.257751H65.8269C67.5839 0.257751 68.4949 1.00113 69.2371 2.53571L73.4983 11.5171C73.5539 11.6353 73.7128 11.9841 73.8843 11.9841C74.0938 11.9841 74.1821 11.6718 74.2815 11.5063Z" fill="#D5B36A"/>
<path d="M51.1664 22.0303C51.1664 16.0222 51.2339 10.6498 51.273 4.64138C51.2832 2.98924 50.1274 2.17372 48.692 1.76363C48.3762 1.63667 48.2064 1.41223 48.1753 1.07099C48.1216 0.465789 48.7409 0.257751 49.2124 0.257751H54.6703C55.4997 0.257751 56.3781 0.95032 56.3781 1.82527V20.9098C56.3781 22.0785 57.0076 22.0751 58.1619 22.0751H60.4978C62.9267 22.0751 64.1458 19.5316 64.7266 17.5702C64.8735 17.0734 65.247 16.6659 65.7969 16.6659C66.4321 16.6659 66.5037 17.6182 66.4832 18.0669V18.0678L66.2013 23.4171C66.1862 23.7449 66.0362 23.9763 65.7442 24.0956C61.0204 23.3887 56.1408 22.6766 51.3759 22.2586C51.2294 22.2559 51.1685 22.1711 51.1664 22.0303Z" fill="#D5B36A"/>
<path d="M29.6604 0.29306H40.5408C45.1396 0.29306 48.4109 2.61134 48.4109 7.28309C48.4109 13.1587 43.5641 15.0284 38.7804 15.8368C37.9644 15.9748 36.8262 16.2541 36.8262 17.2837C36.8262 18.9327 36.7423 20.0559 37.2222 21.6598C37.2701 21.8197 37.3273 21.9644 37.395 22.1009C37.4654 22.277 37.4237 22.3954 37.2177 22.4295C35.431 22.6482 33.6552 22.9462 31.8938 23.3172C31.7349 23.3534 31.6103 23.3137 31.619 23.0925L31.7211 4.67759H31.7202C31.7202 3.08525 30.5961 2.21491 29.14 1.79894C28.8245 1.68398 28.6347 1.43662 28.6233 1.10627C28.6438 0.501099 29.1888 0.29306 29.6604 0.29306ZM42.9523 8.0227C42.9523 5.48238 41.6942 3.56851 39.0268 3.56851C38.3485 3.56851 36.8262 3.63175 36.8262 4.64228L36.8253 4.64679C36.7524 8.00352 36.6503 11.3569 36.6503 14.7132C36.6577 14.926 36.9172 14.8964 37.0529 14.7379C37.5425 13.9833 38.13 13.4837 38.5533 13.2361C40.754 12.0137 42.9196 11.2869 42.9523 8.0227Z" fill="#D5B36A"/>
<path d="M37.4252 33.3612C27.0754 32.6251 17.9092 31.9733 12.4999 32.8009L12.3998 32.3558C28.1549 27.4121 41.7231 29.0268 54.6218 30.5618C66.899 32.0229 78.5677 33.4116 90.9082 28.9724L91.1032 29.3826C79.9849 36.3875 56.6654 34.7293 37.4252 33.3612Z" fill="#D5B36A"/>
<path d="M48.6852 27.9761C38.5718 27.2791 29.5881 26.6599 24.663 27.2279L24.5655 26.783C40.5643 21.5131 52.837 23.6264 64.2962 25.5997C73.8828 27.2505 82.8974 28.8029 93.0305 25.8162L93.0306 25.8165C99.3024 23.9013 101.051 19.4111 101.051 13.2346C101.051 8.55955 98.6138 3.32112 93.2599 3.31076C92.5585 3.31076 90.8508 3.38363 90.6368 4.30301V19.5968C90.6368 20.4342 90.7246 21.3285 90.9256 22.1951C91.1203 23.0346 91.5144 24.0081 91.9516 24.7293C91.0289 25.0572 87.6697 25.7524 86.6291 25.8088C85.7452 24.8499 85.4663 22.5538 85.4962 21.6175L85.4954 4.38453C85.4954 3.17422 84.7659 2.15775 83.6441 1.71381C83.1087 1.55318 82.4959 1.34885 82.4339 0.812307C82.3777 0.208138 83.0027 0 83.471 0H94.8734C98.307 0 101.615 1.21993 103.953 3.79199C106.278 6.35028 107.199 9.64444 107.213 13.1985C106.974 21.5651 100.865 25.2931 93.5447 27.5208L93.5393 27.5225C83.3207 30.3631 64.6059 29.0732 48.6852 27.9761Z" fill="#D5B36A"/>
<path d="M24.7706 38.6884C14.5287 37.9115 5.47246 37.2243 0.100127 38.0462L0 37.6012C15.7552 32.6574 29.3232 34.2722 42.2219 35.8072C54.4991 37.2682 66.168 38.657 78.5084 34.2178L78.7053 34.6261C67.4129 41.9237 44.0063 40.1478 24.7706 38.6884Z" fill="#D5B36A"/>
<path d="M155.619 0.486786C157.225 0.486786 158.681 1.13943 159.735 2.19302L159.737 2.19459C160.79 3.24854 161.443 4.705 161.443 6.31148C161.443 7.91795 160.79 9.37441 159.737 10.4284L159.735 10.4299C158.681 11.4835 157.225 12.1361 155.619 12.1361C154.012 12.1361 152.556 11.4835 151.502 10.4299L151.5 10.4284C150.447 9.37441 149.794 7.91795 149.794 6.31148C149.794 4.705 150.447 3.24854 151.5 2.19459L151.502 2.19302C152.556 1.13943 154.012 0.486786 155.619 0.486786ZM159.182 2.74747C158.271 1.83644 157.01 1.27216 155.619 1.27216C154.227 1.27216 152.967 1.83644 152.055 2.74747C151.144 3.6593 150.58 4.91979 150.58 6.31148C150.58 7.70316 151.144 8.96365 152.055 9.87548C152.967 10.7865 154.227 11.3508 155.619 11.3508C157.01 11.3508 158.271 10.7865 159.182 9.87548C160.093 8.96365 160.658 7.70316 160.658 6.31148C160.658 4.91979 160.093 3.6593 159.182 2.74747Z" fill="#D5B36A"/>
<path d="M153.04 9.81391V2.81119H155.48C156.105 2.81119 156.551 2.87487 156.819 3.00042C157.086 3.12597 157.306 3.34436 157.478 3.6541C157.65 3.96564 157.735 4.33728 157.735 4.76936C157.735 5.31726 157.605 5.75906 157.342 6.09329C157.078 6.42748 156.704 6.63795 156.222 6.72248C156.47 6.90202 156.675 7.09592 156.837 7.30784C157 7.51972 157.221 7.89961 157.502 8.44755L158.198 9.81391H156.819L155.977 8.28959C155.676 7.73988 155.47 7.39453 155.361 7.25565C155.254 7.11714 155.138 7.02252 155.017 6.96894C154.896 6.91675 154.702 6.89049 154.435 6.89049H154.195V9.81391H153.04ZM154.195 5.77199H155.056C155.581 5.77199 155.915 5.74934 156.059 5.70364C156.203 5.65797 156.318 5.56516 156.408 5.42484C156.496 5.28452 156.541 5.0971 156.541 4.86541C156.541 4.642 156.496 4.46283 156.408 4.32755C156.318 4.19231 156.198 4.09914 156.044 4.04876C155.937 4.01278 155.622 3.99661 155.103 3.99661H154.195V5.77199Z" fill="#D5B36A"/>
</svg>
