<svg width="25" height="25" viewBox="0 0 25 25" fill="none" xmlns="http://www.w3.org/2000/svg">
<path d="M16.9643 11.6071C16.9643 9.88652 16.3527 8.4147 15.1297 7.19168C13.9067 5.96865 12.4349 5.35713 10.7143 5.35713C8.99364 5.35713 7.52182 5.96865 6.29879 7.19168C5.07577 8.4147 4.46425 9.88652 4.46425 11.6071C4.46425 13.3277 5.07577 14.7996 6.29879 16.0226C7.52182 17.2456 8.99364 17.8571 10.7143 17.8571C12.4349 17.8571 13.9067 17.2456 15.1297 16.0226C16.3527 14.7996 16.9643 13.3277 16.9643 11.6071ZM24.1071 23.2143C24.1071 23.6979 23.9304 24.1164 23.577 24.4699C23.2236 24.8233 22.805 25 22.3214 25C21.8192 25 21.4006 24.8233 21.0658 24.4699L16.2807 19.6987C14.6159 20.8519 12.7604 21.4286 10.7143 21.4286C9.38427 21.4286 8.11241 21.1705 6.89868 20.6543C5.68495 20.1381 4.63864 19.4406 3.75973 18.5617C2.88082 17.6827 2.18328 16.6364 1.6671 15.4227C1.15091 14.209 0.892822 12.9371 0.892822 11.6071C0.892822 10.2771 1.15091 9.00529 1.6671 7.79156C2.18328 6.57784 2.88082 5.53152 3.75973 4.65261C4.63864 3.77371 5.68495 3.07616 6.89868 2.55998C8.11241 2.0438 9.38427 1.78571 10.7143 1.78571C12.0442 1.78571 13.3161 2.0438 14.5298 2.55998C15.7435 3.07616 16.7899 3.77371 17.6688 4.65261C18.5477 5.53152 19.2452 6.57784 19.7614 7.79156C20.2776 9.00529 20.5357 10.2771 20.5357 11.6071C20.5357 13.6533 19.959 15.5087 18.8058 17.1735L23.5909 21.9587C23.935 22.3028 24.1071 22.7213 24.1071 23.2143Z" fill="white"/>
</svg>
