<svg width="11" height="10" viewBox="0 0 11 10" fill="none" xmlns="http://www.w3.org/2000/svg">
<path d="M5.96921 5.00211L2.22824 1.26098C2.12523 1.15821 2.06856 1.02081 2.06856 0.874309C2.06856 0.727724 2.12523 0.590406 2.22824 0.48748L2.55604 0.159837C2.65889 0.056748 2.79637 0 2.94287 0C3.08937 0 3.22669 0.056748 3.32962 0.159837L7.78385 4.61398C7.88718 4.71724 7.94376 4.8552 7.94336 5.00187C7.94376 5.14919 7.88726 5.28699 7.78385 5.39033L3.33376 9.84016C3.23084 9.94325 3.09352 10 2.94694 10C2.80043 10 2.66311 9.94325 2.56011 9.84016L2.23238 9.51252C2.01913 9.29927 2.01913 8.95211 2.23238 8.73894L5.96921 5.00211Z" fill="#BDBDBD"/>
</svg>
