<svg width="60" height="60" viewBox="0 0 60 60" fill="none" xmlns="http://www.w3.org/2000/svg">
<circle cx="30" cy="30" r="30" fill="black"/>
<g clip-path="url(#clip0)">
<path d="M40.8395 37.4652L37.6578 33.3718C38.3023 33.4518 38.9303 33.176 39.3131 32.625C39.7519 31.9934 39.7397 31.1858 39.2808 30.5661L36.3089 26.5721C36.5513 26.448 36.7678 26.2663 36.9376 26.0318C37.4035 25.3884 37.3879 24.5356 36.8986 23.9097L29.9338 15L22.9692 23.9096C22.4799 24.5355 22.4642 25.3883 22.9301 26.0317C23.0439 26.1888 23.1787 26.3218 23.328 26.4303L20.4192 30.6541C19.9901 31.2761 19.9982 32.0742 20.4397 32.6873C20.7799 33.16 21.3059 33.4232 21.8616 33.4232C22.0269 33.4232 22.5576 33.2951 22.5576 33.2951L19.1877 37.3888C18.6914 37.9918 18.6477 38.8344 19.0792 39.4854C19.5107 40.1364 20.3036 40.4246 21.0523 40.2025L27.0724 38.4165V45H32.7954V38.4165L38.9445 40.2408C39.1176 40.2921 39.2917 40.3171 39.4625 40.3171C40.0318 40.3171 40.5651 40.0405 40.9042 39.5437C41.345 38.8978 41.3195 38.0817 40.8395 37.4652ZM29.9338 17.8657L35.5081 24.9966L29.9338 22.986L24.3595 24.9966L29.9338 17.8657ZM21.8719 31.6562L21.8723 31.6556L25.4327 26.4857L29.9338 24.8621L33.9015 26.2932L37.8636 31.618L29.9338 29.3291L21.8719 31.6562ZM31.0305 43.2352H28.8372V37.8929L29.9338 37.5675L31.0305 37.8929V43.2352H31.0305ZM29.9338 35.7266L20.5503 38.5104L25.5561 32.4296L29.9339 31.166L34.7998 32.5705L39.4465 38.5488L29.9338 35.7266Z" fill="white"/>
</g>
<defs>
<clipPath id="clip0">
<rect width="30" height="30" fill="white" transform="translate(15 15)"/>
</clipPath>
</defs>
</svg>
