<svg width="60" height="60" viewBox="0 0 60 60" fill="none" xmlns="http://www.w3.org/2000/svg">
<path d="M58.016 2.21743C57.9817 2.17817 57.9458 2.13985 57.9084 2.10247C57.8734 2.06743 57.8375 2.03379 57.8009 2.00145C56.5145 0.762775 54.7664 0 52.8436 0H36.7966C35.5024 0 34.4532 1.04906 34.4532 2.3434C34.4532 3.63774 35.5024 4.68681 36.7966 4.68681H52.0103L4.69302 52.0042L4.69782 36.0935C4.69817 34.7994 3.64946 33.7498 2.35512 33.7494H2.35442C1.06067 33.7494 0.0113672 34.7981 0.0110156 36.0921L0.00585938 52.8477C0.00585938 56.7915 3.21434 60 7.15818 60H23.2052C24.4994 60 25.5486 58.9508 25.5486 57.6566C25.5486 56.3624 24.4994 55.3132 23.2052 55.3132H8.01166L55.3091 8.01587V23.6731C55.3091 24.9673 56.3582 26.0165 57.6525 26.0165C58.9468 26.0165 59.9959 24.9674 59.9959 23.6731V7.15244C59.9959 5.24064 59.2421 3.50192 58.016 2.21743Z" fill="black"/>
<path d="M27.4235 4.69144C28.7177 4.69144 29.7669 3.64227 29.7669 2.34804C29.7669 1.05382 28.7177 0.00463867 27.4235 0.00463867C26.1293 0.00463867 25.0801 1.05382 25.0801 2.34804C25.0801 3.64227 26.1293 4.69144 27.4235 4.69144Z" fill="black"/>
<path d="M18.0465 4.69144C19.3408 4.69144 20.3899 3.64227 20.3899 2.34804C20.3899 1.05382 19.3408 0.00463867 18.0465 0.00463867C16.7523 0.00463867 15.7031 1.05382 15.7031 2.34804C15.7031 3.64227 16.7523 4.69144 18.0465 4.69144Z" fill="black"/>
<path d="M8.67543 4.69144C9.96966 4.69144 11.0188 3.64227 11.0188 2.34804C11.0188 1.05382 9.96966 0.00463867 8.67543 0.00463867C7.38121 0.00463867 6.33203 1.05382 6.33203 2.34804C6.33203 3.64227 7.38121 4.69144 8.67543 4.69144Z" fill="black"/>
<path d="M2.34926 29.0623C3.64349 29.0623 4.69267 28.0131 4.69267 26.7189C4.69267 25.4247 3.64349 24.3755 2.34926 24.3755C1.05504 24.3755 0.00585938 25.4247 0.00585938 26.7189C0.00585938 28.0131 1.05504 29.0623 2.34926 29.0623Z" fill="black"/>
<path d="M2.34926 19.689C3.64349 19.689 4.69267 18.6398 4.69267 17.3456C4.69267 16.0514 3.64349 15.0022 2.34926 15.0022C1.05504 15.0022 0.00585938 16.0514 0.00585938 17.3456C0.00585938 18.6398 1.05504 19.689 2.34926 19.689Z" fill="black"/>
<path d="M2.34926 10.3155C3.64349 10.3155 4.69267 9.26629 4.69267 7.97207C4.69267 6.67784 3.64349 5.62866 2.34926 5.62866C1.05504 5.62866 0.00585938 6.67784 0.00585938 7.97207C0.00585938 9.26629 1.05504 10.3155 2.34926 10.3155Z" fill="black"/>
<path d="M57.652 34.9207C58.9462 34.9207 59.9954 33.8715 59.9954 32.5773C59.9954 31.2831 58.9462 30.2339 57.652 30.2339C56.3578 30.2339 55.3086 31.2831 55.3086 32.5773C55.3086 33.8715 56.3578 34.9207 57.652 34.9207Z" fill="black"/>
<path d="M57.652 44.2942C58.9462 44.2942 59.9954 43.245 59.9954 41.9508C59.9954 40.6566 58.9462 39.6074 57.652 39.6074C56.3578 39.6074 55.3086 40.6566 55.3086 41.9508C55.3086 43.245 56.3578 44.2942 57.652 44.2942Z" fill="black"/>
<path d="M57.652 53.6678C58.9462 53.6678 59.9954 52.6186 59.9954 51.3244C59.9954 50.0301 58.9462 48.981 57.652 48.981C56.3578 48.981 55.3086 50.0301 55.3086 51.3244C55.3086 52.6186 56.3578 53.6678 57.652 53.6678Z" fill="black"/>
<path d="M33.2809 59.9947C34.5751 59.9947 35.6243 58.9455 35.6243 57.6513C35.6243 56.357 34.5751 55.3079 33.2809 55.3079C31.9867 55.3079 30.9375 56.357 30.9375 57.6513C30.9375 58.9455 31.9867 59.9947 33.2809 59.9947Z" fill="black"/>
<path d="M42.652 59.9947C43.9462 59.9947 44.9954 58.9455 44.9954 57.6513C44.9954 56.357 43.9462 55.3079 42.652 55.3079C41.3578 55.3079 40.3086 56.357 40.3086 57.6513C40.3086 58.9455 41.3578 59.9947 42.652 59.9947Z" fill="black"/>
<path d="M52.027 59.9947C53.3212 59.9947 54.3704 58.9455 54.3704 57.6513C54.3704 56.357 53.3212 55.3079 52.027 55.3079C50.7328 55.3079 49.6836 56.357 49.6836 57.6513C49.6836 58.9455 50.7328 59.9947 52.027 59.9947Z" fill="black"/>
</svg>
