<svg width="60" height="60" viewBox="0 0 60 60" fill="none" xmlns="http://www.w3.org/2000/svg">
<circle cx="30" cy="30" r="30" fill="black"/>
<path d="M43.9686 29.3645L36.772 22.1782L42.2676 16.6742L40.6087 15.0178L35.1132 20.5217L31.7961 17.2093L17.209 31.7964L29.3821 43.9522C30.0675 44.6377 30.9681 44.9805 31.8685 44.9805C32.7689 44.9805 33.6694 44.6378 34.355 43.9522L43.9692 34.3381C44.6365 33.6708 45.0023 32.7836 44.9992 31.8399C44.996 30.905 44.6302 30.0261 43.9686 29.3645ZM42.3115 32.6804L32.6973 42.2946C32.2403 42.7517 31.4968 42.7517 31.0391 42.294L20.5254 31.7952L31.7972 20.5234L33.4568 22.1806L27.3784 28.2683L29.0373 29.9247L35.1157 23.8371L42.3116 31.0228C42.532 31.2432 42.6539 31.5362 42.6549 31.8478C42.6559 32.1622 42.534 32.4579 42.3115 32.6804Z" fill="white"/>
<path d="M20.5744 38.3769C19.978 37.4864 19.3882 36.7666 19.3634 36.7364L18.4578 35.6344L17.5522 36.7364C17.5274 36.7667 16.9376 37.4864 16.3412 38.3769C15.139 40.1716 15 41.0328 15 41.5244C15 43.4311 16.5512 44.9822 18.4577 44.9822C20.3643 44.9822 21.9155 43.431 21.9155 41.5244C21.9155 41.0328 21.7765 40.1716 20.5744 38.3769ZM18.4577 42.6379C17.8437 42.6379 17.3442 42.1384 17.3442 41.5272C17.3444 41.5225 17.375 41.0426 18.2987 39.6665C18.3519 39.5874 18.4049 39.5096 18.4577 39.4337C18.5104 39.5096 18.5636 39.5874 18.6168 39.6665C19.5244 41.0188 19.5698 41.5056 19.5712 41.5265C19.5701 42.1395 19.0711 42.6379 18.4577 42.6379Z" fill="white"/>
</svg>
