<svg width="16" height="16" viewBox="0 0 16 16" fill="none" xmlns="http://www.w3.org/2000/svg">
<path d="M6.45942 8.00338L12.445 2.01756C12.6098 1.85314 12.7005 1.6333 12.7005 1.39889C12.7005 1.16436 12.6098 0.94465 12.445 0.779967L11.9205 0.25574C11.7559 0.0907967 11.536 0 11.3016 0C11.0672 0 10.8475 0.0907967 10.6828 0.25574L3.556 7.38237C3.39067 7.54758 3.30013 7.76832 3.30078 8.00299C3.30013 8.2387 3.39054 8.45919 3.556 8.62452L10.6761 15.7443C10.8408 15.9092 11.0605 16 11.2951 16C11.5295 16 11.7492 15.9092 11.914 15.7443L12.4383 15.22C12.7795 14.8788 12.7795 14.3234 12.4383 13.9823L6.45942 8.00338Z" fill="#666666"/>
</svg>
