<svg width="16" height="16" viewBox="0 0 16 16" fill="none" xmlns="http://www.w3.org/2000/svg">
<path d="M9.54058 8.00338L3.55502 2.01756C3.39021 1.85314 3.29954 1.6333 3.29954 1.39889C3.29954 1.16436 3.39021 0.94465 3.55502 0.779967L4.07951 0.25574C4.24406 0.0907967 4.46403 0 4.69844 0C4.93284 0 5.15255 0.0907967 5.31723 0.25574L12.444 7.38237C12.6093 7.54758 12.6999 7.76832 12.6992 8.00299C12.6999 8.2387 12.6095 8.45919 12.444 8.62452L5.32387 15.7443C5.15918 15.9092 4.93948 16 4.70494 16C4.47053 16 4.25083 15.9092 4.08601 15.7443L3.56166 15.22C3.22045 14.8788 3.22045 14.3234 3.56166 13.9823L9.54058 8.00338Z" fill="#666666"/>
</svg>
