<svg width="10" height="10" viewBox="0 0 10 10" fill="none" xmlns="http://www.w3.org/2000/svg">
<path d="M5.96326 5.00211L2.22228 1.26098C2.11928 1.15821 2.06261 1.02081 2.06261 0.874309C2.06261 0.727724 2.11928 0.590406 2.22228 0.48748L2.55009 0.159837C2.65294 0.056748 2.79041 0 2.93692 0C3.08342 0 3.22074 0.056748 3.32367 0.159837L7.77789 4.61398C7.88123 4.71724 7.93781 4.8552 7.93741 5.00187C7.93781 5.14919 7.88131 5.28699 7.77789 5.39033L3.32781 9.84016C3.22489 9.94325 3.08757 10 2.94098 10C2.79448 10 2.65716 9.94325 2.55415 9.84016L2.22643 9.51252C2.01318 9.29927 2.01318 8.95211 2.22643 8.73894L5.96326 5.00211Z" fill="#8D8D8D"/>
</svg>
