<svg width="10" height="10" viewBox="0 0 10 10" fill="none" xmlns="http://www.w3.org/2000/svg">
<path d="M5.96325 5.00211L2.22228 1.26098C2.11927 1.15821 2.0626 1.02081 2.0626 0.874309C2.0626 0.727724 2.11927 0.590406 2.22228 0.48748L2.55008 0.159837C2.65293 0.056748 2.79041 0 2.93691 0C3.08342 0 3.22073 0.056748 3.32366 0.159837L7.77789 4.61398C7.88122 4.71724 7.93781 4.8552 7.9374 5.00187C7.93781 5.14919 7.8813 5.28699 7.77789 5.39033L3.32781 9.84016C3.22488 9.94325 3.08756 10 2.94098 10C2.79447 10 2.65716 9.94325 2.55415 9.84016L2.22642 9.51252C2.01317 9.29927 2.01317 8.95211 2.22642 8.73894L5.96325 5.00211Z" fill="white"/>
</svg>
